; NON-PLATED HOLES START AT T1
; THROUGH (PLATED) HOLES START AT T100
M48
INCH
T100C0.001000
T101C0.001000
T102C0.001000
T103C0.001000
T104C0.001000
%
T100
X003522Y001783
X003522Y002783
T101
X008859Y013879
X007859Y004879
X008859Y004879
X009859Y013879
X002859Y013879
X003859Y013879
X009859Y004879
X004859Y013879
X002859Y004879
X003859Y004879
X004859Y004879
X005859Y013879
X006859Y013879
X005859Y004879
X006859Y004879
X007859Y013879
T102
X007853Y003799
X004900Y003799
X002538Y002799
X005884Y002799
X000569Y001799
X006869Y001799
X007853Y002799
X004900Y002799
X002538Y001799
X000569Y003799
X005884Y001799
X006869Y003799
X010806Y000618
X002538Y003799
X007853Y001799
X004900Y001799
X005884Y003799
X000569Y002799
X010806Y003571
X006869Y002799
T103
X008837Y014988
X007837Y014988
T104
X006837Y014988
X005837Y014988
T00
M30
