G04 MADE WITH FRITZING*
G04 WWW.FRITZING.ORG*
G04 DOUBLE SIDED*
G04 HOLES PLATED*
G04 CONTOUR ON CENTER OF CONTOUR VECTOR*
%ASAXBY*%
%FSLAX23Y23*%
%MOIN*%
%OFA0B0*%
%SFA1.0B1.0*%
%ADD10C,0.071000*%
%ADD11C,0.070972*%
%ADD12C,0.077778*%
%ADD13C,0.078000*%
%ADD14R,0.078000X0.078000*%
%LNCOPPER1*%
G90*
G70*
G54D10*
X884Y1499D03*
X784Y1499D03*
G54D11*
X684Y1499D03*
X584Y1499D03*
G54D12*
X286Y488D03*
X386Y488D03*
X486Y488D03*
X586Y488D03*
X686Y488D03*
X786Y488D03*
X886Y488D03*
X986Y488D03*
X986Y1388D03*
X886Y1388D03*
X786Y1388D03*
X686Y1388D03*
X586Y1388D03*
X486Y1388D03*
X386Y1388D03*
X286Y1388D03*
G54D13*
X687Y180D03*
X687Y280D03*
X687Y380D03*
X490Y180D03*
X490Y280D03*
X490Y380D03*
X785Y180D03*
X785Y280D03*
X785Y380D03*
X588Y180D03*
X588Y280D03*
X588Y380D03*
X254Y180D03*
X254Y280D03*
X254Y380D03*
X57Y180D03*
X57Y280D03*
X57Y380D03*
X1081Y357D03*
X1081Y357D03*
X1081Y62D03*
X1081Y62D03*
G54D14*
X687Y180D03*
X490Y180D03*
X785Y180D03*
X588Y180D03*
X254Y180D03*
X57Y180D03*
G04 End of Copper1*
M02*