G04 MADE WITH FRITZING*
G04 WWW.FRITZING.ORG*
G04 DOUBLE SIDED*
G04 HOLES PLATED*
G04 CONTOUR ON CENTER OF CONTOUR VECTOR*
%ASAXBY*%
%FSLAX23Y23*%
%MOIN*%
%OFA0B0*%
%SFA1.0B1.0*%
%ADD10C,0.010000*%
%ADD11R,0.001000X0.001000*%
%LNSILK0*%
G90*
G70*
G54D10*
X1131Y407D02*
X1131Y307D01*
D02*
X1131Y307D02*
X1031Y307D01*
D02*
X1031Y307D02*
X1031Y407D01*
D02*
X1031Y407D02*
X1131Y407D01*
D02*
X1131Y112D02*
X1131Y12D01*
D02*
X1131Y12D02*
X1031Y12D01*
D02*
X1031Y12D02*
X1031Y112D01*
D02*
X1031Y112D02*
X1131Y112D01*
G54D11*
X0Y1626D02*
X1269Y1626D01*
X0Y1625D02*
X1269Y1625D01*
X0Y1624D02*
X1269Y1624D01*
X0Y1623D02*
X1269Y1623D01*
X0Y1622D02*
X1269Y1622D01*
X0Y1621D02*
X1269Y1621D01*
X0Y1620D02*
X1269Y1620D01*
X0Y1619D02*
X1269Y1619D01*
X0Y1618D02*
X7Y1618D01*
X1262Y1618D02*
X1269Y1618D01*
X0Y1617D02*
X7Y1617D01*
X1262Y1617D02*
X1269Y1617D01*
X0Y1616D02*
X7Y1616D01*
X1262Y1616D02*
X1269Y1616D01*
X0Y1615D02*
X7Y1615D01*
X1262Y1615D02*
X1269Y1615D01*
X0Y1614D02*
X7Y1614D01*
X1262Y1614D02*
X1269Y1614D01*
X0Y1613D02*
X7Y1613D01*
X1262Y1613D02*
X1269Y1613D01*
X0Y1612D02*
X7Y1612D01*
X1262Y1612D02*
X1269Y1612D01*
X0Y1611D02*
X7Y1611D01*
X1262Y1611D02*
X1269Y1611D01*
X0Y1610D02*
X7Y1610D01*
X1262Y1610D02*
X1269Y1610D01*
X0Y1609D02*
X7Y1609D01*
X1262Y1609D02*
X1269Y1609D01*
X0Y1608D02*
X7Y1608D01*
X1262Y1608D02*
X1269Y1608D01*
X0Y1607D02*
X7Y1607D01*
X1262Y1607D02*
X1269Y1607D01*
X0Y1606D02*
X7Y1606D01*
X1262Y1606D02*
X1269Y1606D01*
X0Y1605D02*
X7Y1605D01*
X1262Y1605D02*
X1269Y1605D01*
X0Y1604D02*
X7Y1604D01*
X1262Y1604D02*
X1269Y1604D01*
X0Y1603D02*
X7Y1603D01*
X1262Y1603D02*
X1269Y1603D01*
X0Y1602D02*
X7Y1602D01*
X1262Y1602D02*
X1269Y1602D01*
X0Y1601D02*
X7Y1601D01*
X1262Y1601D02*
X1269Y1601D01*
X0Y1600D02*
X7Y1600D01*
X1262Y1600D02*
X1269Y1600D01*
X0Y1599D02*
X7Y1599D01*
X1262Y1599D02*
X1269Y1599D01*
X0Y1598D02*
X7Y1598D01*
X1262Y1598D02*
X1269Y1598D01*
X0Y1597D02*
X7Y1597D01*
X1262Y1597D02*
X1269Y1597D01*
X0Y1596D02*
X7Y1596D01*
X1262Y1596D02*
X1269Y1596D01*
X0Y1595D02*
X7Y1595D01*
X1262Y1595D02*
X1269Y1595D01*
X0Y1594D02*
X7Y1594D01*
X1262Y1594D02*
X1269Y1594D01*
X0Y1593D02*
X7Y1593D01*
X1262Y1593D02*
X1269Y1593D01*
X0Y1592D02*
X7Y1592D01*
X1262Y1592D02*
X1269Y1592D01*
X0Y1591D02*
X7Y1591D01*
X1262Y1591D02*
X1269Y1591D01*
X0Y1590D02*
X7Y1590D01*
X1262Y1590D02*
X1269Y1590D01*
X0Y1589D02*
X7Y1589D01*
X1262Y1589D02*
X1269Y1589D01*
X0Y1588D02*
X7Y1588D01*
X1262Y1588D02*
X1269Y1588D01*
X0Y1587D02*
X7Y1587D01*
X1262Y1587D02*
X1269Y1587D01*
X0Y1586D02*
X7Y1586D01*
X1262Y1586D02*
X1269Y1586D01*
X0Y1585D02*
X7Y1585D01*
X1262Y1585D02*
X1269Y1585D01*
X0Y1584D02*
X7Y1584D01*
X1262Y1584D02*
X1269Y1584D01*
X0Y1583D02*
X7Y1583D01*
X1262Y1583D02*
X1269Y1583D01*
X0Y1582D02*
X7Y1582D01*
X1262Y1582D02*
X1269Y1582D01*
X0Y1581D02*
X7Y1581D01*
X1262Y1581D02*
X1269Y1581D01*
X0Y1580D02*
X7Y1580D01*
X1262Y1580D02*
X1269Y1580D01*
X0Y1579D02*
X7Y1579D01*
X1262Y1579D02*
X1269Y1579D01*
X0Y1578D02*
X7Y1578D01*
X1262Y1578D02*
X1269Y1578D01*
X0Y1577D02*
X7Y1577D01*
X1262Y1577D02*
X1269Y1577D01*
X0Y1576D02*
X7Y1576D01*
X1262Y1576D02*
X1269Y1576D01*
X0Y1575D02*
X7Y1575D01*
X1262Y1575D02*
X1269Y1575D01*
X0Y1574D02*
X7Y1574D01*
X1262Y1574D02*
X1269Y1574D01*
X0Y1573D02*
X7Y1573D01*
X1262Y1573D02*
X1269Y1573D01*
X0Y1572D02*
X7Y1572D01*
X1262Y1572D02*
X1269Y1572D01*
X0Y1571D02*
X7Y1571D01*
X1262Y1571D02*
X1269Y1571D01*
X0Y1570D02*
X7Y1570D01*
X1262Y1570D02*
X1269Y1570D01*
X0Y1569D02*
X7Y1569D01*
X1262Y1569D02*
X1269Y1569D01*
X0Y1568D02*
X7Y1568D01*
X1262Y1568D02*
X1269Y1568D01*
X0Y1567D02*
X7Y1567D01*
X1262Y1567D02*
X1269Y1567D01*
X0Y1566D02*
X7Y1566D01*
X1262Y1566D02*
X1269Y1566D01*
X0Y1565D02*
X7Y1565D01*
X1262Y1565D02*
X1269Y1565D01*
X0Y1564D02*
X7Y1564D01*
X1262Y1564D02*
X1269Y1564D01*
X0Y1563D02*
X7Y1563D01*
X1262Y1563D02*
X1269Y1563D01*
X0Y1562D02*
X7Y1562D01*
X1262Y1562D02*
X1269Y1562D01*
X0Y1561D02*
X7Y1561D01*
X1262Y1561D02*
X1269Y1561D01*
X0Y1560D02*
X7Y1560D01*
X1262Y1560D02*
X1269Y1560D01*
X0Y1559D02*
X7Y1559D01*
X1262Y1559D02*
X1269Y1559D01*
X0Y1558D02*
X7Y1558D01*
X1262Y1558D02*
X1269Y1558D01*
X0Y1557D02*
X7Y1557D01*
X1262Y1557D02*
X1269Y1557D01*
X0Y1556D02*
X7Y1556D01*
X1262Y1556D02*
X1269Y1556D01*
X0Y1555D02*
X7Y1555D01*
X1262Y1555D02*
X1269Y1555D01*
X0Y1554D02*
X7Y1554D01*
X1262Y1554D02*
X1269Y1554D01*
X0Y1553D02*
X7Y1553D01*
X1262Y1553D02*
X1269Y1553D01*
X0Y1552D02*
X7Y1552D01*
X1262Y1552D02*
X1269Y1552D01*
X0Y1551D02*
X7Y1551D01*
X1262Y1551D02*
X1269Y1551D01*
X0Y1550D02*
X7Y1550D01*
X1262Y1550D02*
X1269Y1550D01*
X0Y1549D02*
X7Y1549D01*
X1262Y1549D02*
X1269Y1549D01*
X0Y1548D02*
X7Y1548D01*
X1262Y1548D02*
X1269Y1548D01*
X0Y1547D02*
X7Y1547D01*
X1262Y1547D02*
X1269Y1547D01*
X0Y1546D02*
X7Y1546D01*
X1262Y1546D02*
X1269Y1546D01*
X0Y1545D02*
X7Y1545D01*
X1262Y1545D02*
X1269Y1545D01*
X0Y1544D02*
X7Y1544D01*
X1262Y1544D02*
X1269Y1544D01*
X0Y1543D02*
X7Y1543D01*
X1262Y1543D02*
X1269Y1543D01*
X0Y1542D02*
X7Y1542D01*
X1262Y1542D02*
X1269Y1542D01*
X0Y1541D02*
X7Y1541D01*
X1262Y1541D02*
X1269Y1541D01*
X0Y1540D02*
X7Y1540D01*
X1262Y1540D02*
X1269Y1540D01*
X0Y1539D02*
X7Y1539D01*
X1262Y1539D02*
X1269Y1539D01*
X0Y1538D02*
X7Y1538D01*
X1262Y1538D02*
X1269Y1538D01*
X0Y1537D02*
X7Y1537D01*
X1262Y1537D02*
X1269Y1537D01*
X0Y1536D02*
X7Y1536D01*
X1262Y1536D02*
X1269Y1536D01*
X0Y1535D02*
X7Y1535D01*
X1262Y1535D02*
X1269Y1535D01*
X0Y1534D02*
X7Y1534D01*
X1262Y1534D02*
X1269Y1534D01*
X0Y1533D02*
X7Y1533D01*
X1262Y1533D02*
X1269Y1533D01*
X0Y1532D02*
X7Y1532D01*
X1262Y1532D02*
X1269Y1532D01*
X0Y1531D02*
X7Y1531D01*
X1262Y1531D02*
X1269Y1531D01*
X0Y1530D02*
X7Y1530D01*
X1262Y1530D02*
X1269Y1530D01*
X0Y1529D02*
X7Y1529D01*
X1262Y1529D02*
X1269Y1529D01*
X0Y1528D02*
X7Y1528D01*
X1262Y1528D02*
X1269Y1528D01*
X0Y1527D02*
X7Y1527D01*
X1262Y1527D02*
X1269Y1527D01*
X0Y1526D02*
X7Y1526D01*
X1262Y1526D02*
X1269Y1526D01*
X0Y1525D02*
X7Y1525D01*
X1262Y1525D02*
X1269Y1525D01*
X0Y1524D02*
X7Y1524D01*
X1262Y1524D02*
X1269Y1524D01*
X0Y1523D02*
X7Y1523D01*
X1262Y1523D02*
X1269Y1523D01*
X0Y1522D02*
X7Y1522D01*
X1262Y1522D02*
X1269Y1522D01*
X0Y1521D02*
X7Y1521D01*
X1262Y1521D02*
X1269Y1521D01*
X0Y1520D02*
X7Y1520D01*
X1262Y1520D02*
X1269Y1520D01*
X0Y1519D02*
X7Y1519D01*
X1262Y1519D02*
X1269Y1519D01*
X0Y1518D02*
X7Y1518D01*
X1262Y1518D02*
X1269Y1518D01*
X0Y1517D02*
X7Y1517D01*
X1262Y1517D02*
X1269Y1517D01*
X0Y1516D02*
X7Y1516D01*
X1262Y1516D02*
X1269Y1516D01*
X0Y1515D02*
X7Y1515D01*
X1262Y1515D02*
X1269Y1515D01*
X0Y1514D02*
X7Y1514D01*
X1262Y1514D02*
X1269Y1514D01*
X0Y1513D02*
X7Y1513D01*
X1262Y1513D02*
X1269Y1513D01*
X0Y1512D02*
X7Y1512D01*
X1262Y1512D02*
X1269Y1512D01*
X0Y1511D02*
X7Y1511D01*
X1262Y1511D02*
X1269Y1511D01*
X0Y1510D02*
X7Y1510D01*
X1262Y1510D02*
X1269Y1510D01*
X0Y1509D02*
X7Y1509D01*
X1262Y1509D02*
X1269Y1509D01*
X0Y1508D02*
X7Y1508D01*
X1262Y1508D02*
X1269Y1508D01*
X0Y1507D02*
X7Y1507D01*
X1262Y1507D02*
X1269Y1507D01*
X0Y1506D02*
X7Y1506D01*
X1262Y1506D02*
X1269Y1506D01*
X0Y1505D02*
X7Y1505D01*
X1262Y1505D02*
X1269Y1505D01*
X0Y1504D02*
X7Y1504D01*
X1262Y1504D02*
X1269Y1504D01*
X0Y1503D02*
X7Y1503D01*
X1262Y1503D02*
X1269Y1503D01*
X0Y1502D02*
X7Y1502D01*
X1262Y1502D02*
X1269Y1502D01*
X0Y1501D02*
X7Y1501D01*
X1262Y1501D02*
X1269Y1501D01*
X0Y1500D02*
X7Y1500D01*
X1262Y1500D02*
X1269Y1500D01*
X0Y1499D02*
X7Y1499D01*
X1262Y1499D02*
X1269Y1499D01*
X0Y1498D02*
X7Y1498D01*
X1262Y1498D02*
X1269Y1498D01*
X0Y1497D02*
X7Y1497D01*
X1262Y1497D02*
X1269Y1497D01*
X0Y1496D02*
X7Y1496D01*
X1262Y1496D02*
X1269Y1496D01*
X0Y1495D02*
X7Y1495D01*
X1262Y1495D02*
X1269Y1495D01*
X0Y1494D02*
X7Y1494D01*
X1262Y1494D02*
X1269Y1494D01*
X0Y1493D02*
X7Y1493D01*
X1262Y1493D02*
X1269Y1493D01*
X0Y1492D02*
X7Y1492D01*
X1262Y1492D02*
X1269Y1492D01*
X0Y1491D02*
X7Y1491D01*
X1262Y1491D02*
X1269Y1491D01*
X0Y1490D02*
X7Y1490D01*
X1262Y1490D02*
X1269Y1490D01*
X0Y1489D02*
X7Y1489D01*
X1262Y1489D02*
X1269Y1489D01*
X0Y1488D02*
X7Y1488D01*
X1262Y1488D02*
X1269Y1488D01*
X0Y1487D02*
X7Y1487D01*
X1262Y1487D02*
X1269Y1487D01*
X0Y1486D02*
X7Y1486D01*
X1262Y1486D02*
X1269Y1486D01*
X0Y1485D02*
X7Y1485D01*
X1262Y1485D02*
X1269Y1485D01*
X0Y1484D02*
X7Y1484D01*
X1262Y1484D02*
X1269Y1484D01*
X0Y1483D02*
X7Y1483D01*
X1262Y1483D02*
X1269Y1483D01*
X0Y1482D02*
X7Y1482D01*
X1262Y1482D02*
X1269Y1482D01*
X0Y1481D02*
X7Y1481D01*
X1262Y1481D02*
X1269Y1481D01*
X0Y1480D02*
X7Y1480D01*
X1262Y1480D02*
X1269Y1480D01*
X0Y1479D02*
X7Y1479D01*
X1262Y1479D02*
X1269Y1479D01*
X0Y1478D02*
X7Y1478D01*
X1262Y1478D02*
X1269Y1478D01*
X0Y1477D02*
X7Y1477D01*
X1262Y1477D02*
X1269Y1477D01*
X0Y1476D02*
X7Y1476D01*
X1262Y1476D02*
X1269Y1476D01*
X0Y1475D02*
X7Y1475D01*
X1262Y1475D02*
X1269Y1475D01*
X0Y1474D02*
X7Y1474D01*
X1262Y1474D02*
X1269Y1474D01*
X0Y1473D02*
X7Y1473D01*
X1262Y1473D02*
X1269Y1473D01*
X0Y1472D02*
X7Y1472D01*
X1262Y1472D02*
X1269Y1472D01*
X0Y1471D02*
X7Y1471D01*
X1262Y1471D02*
X1269Y1471D01*
X0Y1470D02*
X7Y1470D01*
X1262Y1470D02*
X1269Y1470D01*
X0Y1469D02*
X7Y1469D01*
X1262Y1469D02*
X1269Y1469D01*
X0Y1468D02*
X7Y1468D01*
X1262Y1468D02*
X1269Y1468D01*
X0Y1467D02*
X7Y1467D01*
X1262Y1467D02*
X1269Y1467D01*
X0Y1466D02*
X7Y1466D01*
X1262Y1466D02*
X1269Y1466D01*
X0Y1465D02*
X7Y1465D01*
X1262Y1465D02*
X1269Y1465D01*
X0Y1464D02*
X7Y1464D01*
X1262Y1464D02*
X1269Y1464D01*
X0Y1463D02*
X7Y1463D01*
X1262Y1463D02*
X1269Y1463D01*
X0Y1462D02*
X7Y1462D01*
X1262Y1462D02*
X1269Y1462D01*
X0Y1461D02*
X7Y1461D01*
X1262Y1461D02*
X1269Y1461D01*
X0Y1460D02*
X7Y1460D01*
X1262Y1460D02*
X1269Y1460D01*
X0Y1459D02*
X7Y1459D01*
X1262Y1459D02*
X1269Y1459D01*
X0Y1458D02*
X7Y1458D01*
X1262Y1458D02*
X1269Y1458D01*
X0Y1457D02*
X7Y1457D01*
X1262Y1457D02*
X1269Y1457D01*
X0Y1456D02*
X7Y1456D01*
X1262Y1456D02*
X1269Y1456D01*
X0Y1455D02*
X7Y1455D01*
X1262Y1455D02*
X1269Y1455D01*
X0Y1454D02*
X7Y1454D01*
X1262Y1454D02*
X1269Y1454D01*
X0Y1453D02*
X7Y1453D01*
X1262Y1453D02*
X1269Y1453D01*
X0Y1452D02*
X7Y1452D01*
X1262Y1452D02*
X1269Y1452D01*
X0Y1451D02*
X7Y1451D01*
X1262Y1451D02*
X1269Y1451D01*
X0Y1450D02*
X7Y1450D01*
X1262Y1450D02*
X1269Y1450D01*
X0Y1449D02*
X7Y1449D01*
X1262Y1449D02*
X1269Y1449D01*
X0Y1448D02*
X7Y1448D01*
X1262Y1448D02*
X1269Y1448D01*
X0Y1447D02*
X7Y1447D01*
X1262Y1447D02*
X1269Y1447D01*
X0Y1446D02*
X7Y1446D01*
X1262Y1446D02*
X1269Y1446D01*
X0Y1445D02*
X7Y1445D01*
X1262Y1445D02*
X1269Y1445D01*
X0Y1444D02*
X7Y1444D01*
X1262Y1444D02*
X1269Y1444D01*
X0Y1443D02*
X7Y1443D01*
X1262Y1443D02*
X1269Y1443D01*
X0Y1442D02*
X7Y1442D01*
X1262Y1442D02*
X1269Y1442D01*
X0Y1441D02*
X7Y1441D01*
X1262Y1441D02*
X1269Y1441D01*
X0Y1440D02*
X7Y1440D01*
X1262Y1440D02*
X1269Y1440D01*
X0Y1439D02*
X7Y1439D01*
X1262Y1439D02*
X1269Y1439D01*
X0Y1438D02*
X7Y1438D01*
X1262Y1438D02*
X1269Y1438D01*
X0Y1437D02*
X7Y1437D01*
X1262Y1437D02*
X1269Y1437D01*
X0Y1436D02*
X7Y1436D01*
X1262Y1436D02*
X1269Y1436D01*
X0Y1435D02*
X7Y1435D01*
X1262Y1435D02*
X1269Y1435D01*
X0Y1434D02*
X7Y1434D01*
X1262Y1434D02*
X1269Y1434D01*
X0Y1433D02*
X7Y1433D01*
X1262Y1433D02*
X1269Y1433D01*
X0Y1432D02*
X7Y1432D01*
X1262Y1432D02*
X1269Y1432D01*
X0Y1431D02*
X7Y1431D01*
X1262Y1431D02*
X1269Y1431D01*
X0Y1430D02*
X7Y1430D01*
X1262Y1430D02*
X1269Y1430D01*
X0Y1429D02*
X7Y1429D01*
X1262Y1429D02*
X1269Y1429D01*
X0Y1428D02*
X7Y1428D01*
X1262Y1428D02*
X1269Y1428D01*
X0Y1427D02*
X7Y1427D01*
X1262Y1427D02*
X1269Y1427D01*
X0Y1426D02*
X7Y1426D01*
X1262Y1426D02*
X1269Y1426D01*
X0Y1425D02*
X7Y1425D01*
X1262Y1425D02*
X1269Y1425D01*
X0Y1424D02*
X7Y1424D01*
X1262Y1424D02*
X1269Y1424D01*
X0Y1423D02*
X7Y1423D01*
X1262Y1423D02*
X1269Y1423D01*
X0Y1422D02*
X7Y1422D01*
X1262Y1422D02*
X1269Y1422D01*
X0Y1421D02*
X7Y1421D01*
X1262Y1421D02*
X1269Y1421D01*
X0Y1420D02*
X7Y1420D01*
X1262Y1420D02*
X1269Y1420D01*
X0Y1419D02*
X7Y1419D01*
X1262Y1419D02*
X1269Y1419D01*
X0Y1418D02*
X7Y1418D01*
X1262Y1418D02*
X1269Y1418D01*
X0Y1417D02*
X7Y1417D01*
X1262Y1417D02*
X1269Y1417D01*
X0Y1416D02*
X7Y1416D01*
X1262Y1416D02*
X1269Y1416D01*
X0Y1415D02*
X7Y1415D01*
X1262Y1415D02*
X1269Y1415D01*
X0Y1414D02*
X7Y1414D01*
X1262Y1414D02*
X1269Y1414D01*
X0Y1413D02*
X7Y1413D01*
X1262Y1413D02*
X1269Y1413D01*
X0Y1412D02*
X7Y1412D01*
X1262Y1412D02*
X1269Y1412D01*
X0Y1411D02*
X7Y1411D01*
X1262Y1411D02*
X1269Y1411D01*
X0Y1410D02*
X7Y1410D01*
X1262Y1410D02*
X1269Y1410D01*
X0Y1409D02*
X7Y1409D01*
X1262Y1409D02*
X1269Y1409D01*
X0Y1408D02*
X7Y1408D01*
X1262Y1408D02*
X1269Y1408D01*
X0Y1407D02*
X7Y1407D01*
X1262Y1407D02*
X1269Y1407D01*
X0Y1406D02*
X7Y1406D01*
X1262Y1406D02*
X1269Y1406D01*
X0Y1405D02*
X7Y1405D01*
X1262Y1405D02*
X1269Y1405D01*
X0Y1404D02*
X7Y1404D01*
X1262Y1404D02*
X1269Y1404D01*
X0Y1403D02*
X7Y1403D01*
X1262Y1403D02*
X1269Y1403D01*
X0Y1402D02*
X7Y1402D01*
X1262Y1402D02*
X1269Y1402D01*
X0Y1401D02*
X7Y1401D01*
X1262Y1401D02*
X1269Y1401D01*
X0Y1400D02*
X7Y1400D01*
X1262Y1400D02*
X1269Y1400D01*
X0Y1399D02*
X7Y1399D01*
X1262Y1399D02*
X1269Y1399D01*
X0Y1398D02*
X7Y1398D01*
X1262Y1398D02*
X1269Y1398D01*
X0Y1397D02*
X7Y1397D01*
X1262Y1397D02*
X1269Y1397D01*
X0Y1396D02*
X7Y1396D01*
X1262Y1396D02*
X1269Y1396D01*
X0Y1395D02*
X7Y1395D01*
X1262Y1395D02*
X1269Y1395D01*
X0Y1394D02*
X7Y1394D01*
X1262Y1394D02*
X1269Y1394D01*
X0Y1393D02*
X7Y1393D01*
X1262Y1393D02*
X1269Y1393D01*
X0Y1392D02*
X7Y1392D01*
X1262Y1392D02*
X1269Y1392D01*
X0Y1391D02*
X7Y1391D01*
X1262Y1391D02*
X1269Y1391D01*
X0Y1390D02*
X7Y1390D01*
X1262Y1390D02*
X1269Y1390D01*
X0Y1389D02*
X7Y1389D01*
X1262Y1389D02*
X1269Y1389D01*
X0Y1388D02*
X7Y1388D01*
X1262Y1388D02*
X1269Y1388D01*
X0Y1387D02*
X7Y1387D01*
X1262Y1387D02*
X1269Y1387D01*
X0Y1386D02*
X7Y1386D01*
X1262Y1386D02*
X1269Y1386D01*
X0Y1385D02*
X7Y1385D01*
X1262Y1385D02*
X1269Y1385D01*
X0Y1384D02*
X7Y1384D01*
X1262Y1384D02*
X1269Y1384D01*
X0Y1383D02*
X7Y1383D01*
X1262Y1383D02*
X1269Y1383D01*
X0Y1382D02*
X7Y1382D01*
X1262Y1382D02*
X1269Y1382D01*
X0Y1381D02*
X7Y1381D01*
X1262Y1381D02*
X1269Y1381D01*
X0Y1380D02*
X7Y1380D01*
X1262Y1380D02*
X1269Y1380D01*
X0Y1379D02*
X7Y1379D01*
X1262Y1379D02*
X1269Y1379D01*
X0Y1378D02*
X7Y1378D01*
X1262Y1378D02*
X1269Y1378D01*
X0Y1377D02*
X7Y1377D01*
X1262Y1377D02*
X1269Y1377D01*
X0Y1376D02*
X7Y1376D01*
X1262Y1376D02*
X1269Y1376D01*
X0Y1375D02*
X7Y1375D01*
X1262Y1375D02*
X1269Y1375D01*
X0Y1374D02*
X7Y1374D01*
X1262Y1374D02*
X1269Y1374D01*
X0Y1373D02*
X7Y1373D01*
X1262Y1373D02*
X1269Y1373D01*
X0Y1372D02*
X7Y1372D01*
X1262Y1372D02*
X1269Y1372D01*
X0Y1371D02*
X7Y1371D01*
X1262Y1371D02*
X1269Y1371D01*
X0Y1370D02*
X7Y1370D01*
X1262Y1370D02*
X1269Y1370D01*
X0Y1369D02*
X7Y1369D01*
X1262Y1369D02*
X1269Y1369D01*
X0Y1368D02*
X7Y1368D01*
X1262Y1368D02*
X1269Y1368D01*
X0Y1367D02*
X7Y1367D01*
X1262Y1367D02*
X1269Y1367D01*
X0Y1366D02*
X7Y1366D01*
X1262Y1366D02*
X1269Y1366D01*
X0Y1365D02*
X7Y1365D01*
X1262Y1365D02*
X1269Y1365D01*
X0Y1364D02*
X7Y1364D01*
X1262Y1364D02*
X1269Y1364D01*
X0Y1363D02*
X7Y1363D01*
X1262Y1363D02*
X1269Y1363D01*
X0Y1362D02*
X7Y1362D01*
X1262Y1362D02*
X1269Y1362D01*
X0Y1361D02*
X7Y1361D01*
X1262Y1361D02*
X1269Y1361D01*
X0Y1360D02*
X7Y1360D01*
X1262Y1360D02*
X1269Y1360D01*
X0Y1359D02*
X7Y1359D01*
X1262Y1359D02*
X1269Y1359D01*
X0Y1358D02*
X7Y1358D01*
X1262Y1358D02*
X1269Y1358D01*
X0Y1357D02*
X7Y1357D01*
X1262Y1357D02*
X1269Y1357D01*
X0Y1356D02*
X7Y1356D01*
X1262Y1356D02*
X1269Y1356D01*
X0Y1355D02*
X7Y1355D01*
X1262Y1355D02*
X1269Y1355D01*
X0Y1354D02*
X7Y1354D01*
X1262Y1354D02*
X1269Y1354D01*
X0Y1353D02*
X7Y1353D01*
X1262Y1353D02*
X1269Y1353D01*
X0Y1352D02*
X7Y1352D01*
X1262Y1352D02*
X1269Y1352D01*
X0Y1351D02*
X7Y1351D01*
X1262Y1351D02*
X1269Y1351D01*
X0Y1350D02*
X7Y1350D01*
X1262Y1350D02*
X1269Y1350D01*
X0Y1349D02*
X7Y1349D01*
X1262Y1349D02*
X1269Y1349D01*
X0Y1348D02*
X7Y1348D01*
X1262Y1348D02*
X1269Y1348D01*
X0Y1347D02*
X7Y1347D01*
X1262Y1347D02*
X1269Y1347D01*
X0Y1346D02*
X7Y1346D01*
X1262Y1346D02*
X1269Y1346D01*
X0Y1345D02*
X7Y1345D01*
X1262Y1345D02*
X1269Y1345D01*
X0Y1344D02*
X7Y1344D01*
X1262Y1344D02*
X1269Y1344D01*
X0Y1343D02*
X7Y1343D01*
X1262Y1343D02*
X1269Y1343D01*
X0Y1342D02*
X7Y1342D01*
X1262Y1342D02*
X1269Y1342D01*
X0Y1341D02*
X7Y1341D01*
X1262Y1341D02*
X1269Y1341D01*
X0Y1340D02*
X7Y1340D01*
X1262Y1340D02*
X1269Y1340D01*
X0Y1339D02*
X7Y1339D01*
X1262Y1339D02*
X1269Y1339D01*
X0Y1338D02*
X7Y1338D01*
X1262Y1338D02*
X1269Y1338D01*
X0Y1337D02*
X7Y1337D01*
X1262Y1337D02*
X1269Y1337D01*
X0Y1336D02*
X7Y1336D01*
X1262Y1336D02*
X1269Y1336D01*
X0Y1335D02*
X7Y1335D01*
X1262Y1335D02*
X1269Y1335D01*
X0Y1334D02*
X7Y1334D01*
X1262Y1334D02*
X1269Y1334D01*
X0Y1333D02*
X7Y1333D01*
X1262Y1333D02*
X1269Y1333D01*
X0Y1332D02*
X7Y1332D01*
X1262Y1332D02*
X1269Y1332D01*
X0Y1331D02*
X7Y1331D01*
X1262Y1331D02*
X1269Y1331D01*
X0Y1330D02*
X7Y1330D01*
X1262Y1330D02*
X1269Y1330D01*
X0Y1329D02*
X7Y1329D01*
X1262Y1329D02*
X1269Y1329D01*
X0Y1328D02*
X7Y1328D01*
X1262Y1328D02*
X1269Y1328D01*
X0Y1327D02*
X7Y1327D01*
X1262Y1327D02*
X1269Y1327D01*
X0Y1326D02*
X7Y1326D01*
X1262Y1326D02*
X1269Y1326D01*
X0Y1325D02*
X7Y1325D01*
X1262Y1325D02*
X1269Y1325D01*
X0Y1324D02*
X7Y1324D01*
X1262Y1324D02*
X1269Y1324D01*
X0Y1323D02*
X7Y1323D01*
X1262Y1323D02*
X1269Y1323D01*
X0Y1322D02*
X7Y1322D01*
X1262Y1322D02*
X1269Y1322D01*
X0Y1321D02*
X7Y1321D01*
X1262Y1321D02*
X1269Y1321D01*
X0Y1320D02*
X7Y1320D01*
X1262Y1320D02*
X1269Y1320D01*
X0Y1319D02*
X7Y1319D01*
X1262Y1319D02*
X1269Y1319D01*
X0Y1318D02*
X7Y1318D01*
X1262Y1318D02*
X1269Y1318D01*
X0Y1317D02*
X7Y1317D01*
X1262Y1317D02*
X1269Y1317D01*
X0Y1316D02*
X7Y1316D01*
X1262Y1316D02*
X1269Y1316D01*
X0Y1315D02*
X7Y1315D01*
X1262Y1315D02*
X1269Y1315D01*
X0Y1314D02*
X7Y1314D01*
X1262Y1314D02*
X1269Y1314D01*
X0Y1313D02*
X7Y1313D01*
X1262Y1313D02*
X1269Y1313D01*
X0Y1312D02*
X7Y1312D01*
X1262Y1312D02*
X1269Y1312D01*
X0Y1311D02*
X7Y1311D01*
X1262Y1311D02*
X1269Y1311D01*
X0Y1310D02*
X7Y1310D01*
X1262Y1310D02*
X1269Y1310D01*
X0Y1309D02*
X7Y1309D01*
X1262Y1309D02*
X1269Y1309D01*
X0Y1308D02*
X7Y1308D01*
X1262Y1308D02*
X1269Y1308D01*
X0Y1307D02*
X7Y1307D01*
X1262Y1307D02*
X1269Y1307D01*
X0Y1306D02*
X7Y1306D01*
X1262Y1306D02*
X1269Y1306D01*
X0Y1305D02*
X7Y1305D01*
X1262Y1305D02*
X1269Y1305D01*
X0Y1304D02*
X7Y1304D01*
X1262Y1304D02*
X1269Y1304D01*
X0Y1303D02*
X7Y1303D01*
X1262Y1303D02*
X1269Y1303D01*
X0Y1302D02*
X7Y1302D01*
X1262Y1302D02*
X1269Y1302D01*
X0Y1301D02*
X7Y1301D01*
X1262Y1301D02*
X1269Y1301D01*
X0Y1300D02*
X7Y1300D01*
X1262Y1300D02*
X1269Y1300D01*
X0Y1299D02*
X7Y1299D01*
X1262Y1299D02*
X1269Y1299D01*
X0Y1298D02*
X7Y1298D01*
X1262Y1298D02*
X1269Y1298D01*
X0Y1297D02*
X7Y1297D01*
X1262Y1297D02*
X1269Y1297D01*
X0Y1296D02*
X7Y1296D01*
X1262Y1296D02*
X1269Y1296D01*
X0Y1295D02*
X7Y1295D01*
X1262Y1295D02*
X1269Y1295D01*
X0Y1294D02*
X7Y1294D01*
X1262Y1294D02*
X1269Y1294D01*
X0Y1293D02*
X7Y1293D01*
X1262Y1293D02*
X1269Y1293D01*
X0Y1292D02*
X7Y1292D01*
X1262Y1292D02*
X1269Y1292D01*
X0Y1291D02*
X7Y1291D01*
X1262Y1291D02*
X1269Y1291D01*
X0Y1290D02*
X7Y1290D01*
X1262Y1290D02*
X1269Y1290D01*
X0Y1289D02*
X7Y1289D01*
X1262Y1289D02*
X1269Y1289D01*
X0Y1288D02*
X7Y1288D01*
X1262Y1288D02*
X1269Y1288D01*
X0Y1287D02*
X7Y1287D01*
X1262Y1287D02*
X1269Y1287D01*
X0Y1286D02*
X7Y1286D01*
X1262Y1286D02*
X1269Y1286D01*
X0Y1285D02*
X7Y1285D01*
X1262Y1285D02*
X1269Y1285D01*
X0Y1284D02*
X7Y1284D01*
X1262Y1284D02*
X1269Y1284D01*
X0Y1283D02*
X7Y1283D01*
X1262Y1283D02*
X1269Y1283D01*
X0Y1282D02*
X7Y1282D01*
X1262Y1282D02*
X1269Y1282D01*
X0Y1281D02*
X7Y1281D01*
X1262Y1281D02*
X1269Y1281D01*
X0Y1280D02*
X7Y1280D01*
X1262Y1280D02*
X1269Y1280D01*
X0Y1279D02*
X7Y1279D01*
X1262Y1279D02*
X1269Y1279D01*
X0Y1278D02*
X7Y1278D01*
X1262Y1278D02*
X1269Y1278D01*
X0Y1277D02*
X7Y1277D01*
X1262Y1277D02*
X1269Y1277D01*
X0Y1276D02*
X7Y1276D01*
X1262Y1276D02*
X1269Y1276D01*
X0Y1275D02*
X7Y1275D01*
X1262Y1275D02*
X1269Y1275D01*
X0Y1274D02*
X7Y1274D01*
X1262Y1274D02*
X1269Y1274D01*
X0Y1273D02*
X7Y1273D01*
X1262Y1273D02*
X1269Y1273D01*
X0Y1272D02*
X7Y1272D01*
X1262Y1272D02*
X1269Y1272D01*
X0Y1271D02*
X7Y1271D01*
X1262Y1271D02*
X1269Y1271D01*
X0Y1270D02*
X7Y1270D01*
X1262Y1270D02*
X1269Y1270D01*
X0Y1269D02*
X7Y1269D01*
X1262Y1269D02*
X1269Y1269D01*
X0Y1268D02*
X7Y1268D01*
X1262Y1268D02*
X1269Y1268D01*
X0Y1267D02*
X7Y1267D01*
X1262Y1267D02*
X1269Y1267D01*
X0Y1266D02*
X7Y1266D01*
X1262Y1266D02*
X1269Y1266D01*
X0Y1265D02*
X7Y1265D01*
X1262Y1265D02*
X1269Y1265D01*
X0Y1264D02*
X7Y1264D01*
X1262Y1264D02*
X1269Y1264D01*
X0Y1263D02*
X7Y1263D01*
X1262Y1263D02*
X1269Y1263D01*
X0Y1262D02*
X7Y1262D01*
X1262Y1262D02*
X1269Y1262D01*
X0Y1261D02*
X7Y1261D01*
X1262Y1261D02*
X1269Y1261D01*
X0Y1260D02*
X7Y1260D01*
X1262Y1260D02*
X1269Y1260D01*
X0Y1259D02*
X7Y1259D01*
X1262Y1259D02*
X1269Y1259D01*
X0Y1258D02*
X7Y1258D01*
X1262Y1258D02*
X1269Y1258D01*
X0Y1257D02*
X7Y1257D01*
X1262Y1257D02*
X1269Y1257D01*
X0Y1256D02*
X7Y1256D01*
X1262Y1256D02*
X1269Y1256D01*
X0Y1255D02*
X7Y1255D01*
X1262Y1255D02*
X1269Y1255D01*
X0Y1254D02*
X7Y1254D01*
X1262Y1254D02*
X1269Y1254D01*
X0Y1253D02*
X7Y1253D01*
X1262Y1253D02*
X1269Y1253D01*
X0Y1252D02*
X7Y1252D01*
X1262Y1252D02*
X1269Y1252D01*
X0Y1251D02*
X7Y1251D01*
X1262Y1251D02*
X1269Y1251D01*
X0Y1250D02*
X7Y1250D01*
X1262Y1250D02*
X1269Y1250D01*
X0Y1249D02*
X7Y1249D01*
X1262Y1249D02*
X1269Y1249D01*
X0Y1248D02*
X7Y1248D01*
X1262Y1248D02*
X1269Y1248D01*
X0Y1247D02*
X7Y1247D01*
X1262Y1247D02*
X1269Y1247D01*
X0Y1246D02*
X7Y1246D01*
X1262Y1246D02*
X1269Y1246D01*
X0Y1245D02*
X7Y1245D01*
X1262Y1245D02*
X1269Y1245D01*
X0Y1244D02*
X7Y1244D01*
X1262Y1244D02*
X1269Y1244D01*
X0Y1243D02*
X7Y1243D01*
X1262Y1243D02*
X1269Y1243D01*
X0Y1242D02*
X7Y1242D01*
X1262Y1242D02*
X1269Y1242D01*
X0Y1241D02*
X7Y1241D01*
X1262Y1241D02*
X1269Y1241D01*
X0Y1240D02*
X7Y1240D01*
X1262Y1240D02*
X1269Y1240D01*
X0Y1239D02*
X7Y1239D01*
X1262Y1239D02*
X1269Y1239D01*
X0Y1238D02*
X7Y1238D01*
X1262Y1238D02*
X1269Y1238D01*
X0Y1237D02*
X7Y1237D01*
X1262Y1237D02*
X1269Y1237D01*
X0Y1236D02*
X7Y1236D01*
X1262Y1236D02*
X1269Y1236D01*
X0Y1235D02*
X7Y1235D01*
X1262Y1235D02*
X1269Y1235D01*
X0Y1234D02*
X7Y1234D01*
X1262Y1234D02*
X1269Y1234D01*
X0Y1233D02*
X7Y1233D01*
X1262Y1233D02*
X1269Y1233D01*
X0Y1232D02*
X7Y1232D01*
X1262Y1232D02*
X1269Y1232D01*
X0Y1231D02*
X7Y1231D01*
X1262Y1231D02*
X1269Y1231D01*
X0Y1230D02*
X7Y1230D01*
X1262Y1230D02*
X1269Y1230D01*
X0Y1229D02*
X7Y1229D01*
X1262Y1229D02*
X1269Y1229D01*
X0Y1228D02*
X7Y1228D01*
X1262Y1228D02*
X1269Y1228D01*
X0Y1227D02*
X7Y1227D01*
X1262Y1227D02*
X1269Y1227D01*
X0Y1226D02*
X7Y1226D01*
X1262Y1226D02*
X1269Y1226D01*
X0Y1225D02*
X7Y1225D01*
X1262Y1225D02*
X1269Y1225D01*
X0Y1224D02*
X7Y1224D01*
X1262Y1224D02*
X1269Y1224D01*
X0Y1223D02*
X7Y1223D01*
X1262Y1223D02*
X1269Y1223D01*
X0Y1222D02*
X7Y1222D01*
X1262Y1222D02*
X1269Y1222D01*
X0Y1221D02*
X7Y1221D01*
X1262Y1221D02*
X1269Y1221D01*
X0Y1220D02*
X7Y1220D01*
X1262Y1220D02*
X1269Y1220D01*
X0Y1219D02*
X7Y1219D01*
X1262Y1219D02*
X1269Y1219D01*
X0Y1218D02*
X7Y1218D01*
X1262Y1218D02*
X1269Y1218D01*
X0Y1217D02*
X7Y1217D01*
X1262Y1217D02*
X1269Y1217D01*
X0Y1216D02*
X7Y1216D01*
X1262Y1216D02*
X1269Y1216D01*
X0Y1215D02*
X7Y1215D01*
X1262Y1215D02*
X1269Y1215D01*
X0Y1214D02*
X7Y1214D01*
X1262Y1214D02*
X1269Y1214D01*
X0Y1213D02*
X7Y1213D01*
X1262Y1213D02*
X1269Y1213D01*
X0Y1212D02*
X7Y1212D01*
X1262Y1212D02*
X1269Y1212D01*
X0Y1211D02*
X7Y1211D01*
X1262Y1211D02*
X1269Y1211D01*
X0Y1210D02*
X7Y1210D01*
X1262Y1210D02*
X1269Y1210D01*
X0Y1209D02*
X7Y1209D01*
X1262Y1209D02*
X1269Y1209D01*
X0Y1208D02*
X7Y1208D01*
X1262Y1208D02*
X1269Y1208D01*
X0Y1207D02*
X7Y1207D01*
X1262Y1207D02*
X1269Y1207D01*
X0Y1206D02*
X7Y1206D01*
X1262Y1206D02*
X1269Y1206D01*
X0Y1205D02*
X7Y1205D01*
X1262Y1205D02*
X1269Y1205D01*
X0Y1204D02*
X7Y1204D01*
X1262Y1204D02*
X1269Y1204D01*
X0Y1203D02*
X7Y1203D01*
X1262Y1203D02*
X1269Y1203D01*
X0Y1202D02*
X7Y1202D01*
X1262Y1202D02*
X1269Y1202D01*
X0Y1201D02*
X7Y1201D01*
X1262Y1201D02*
X1269Y1201D01*
X0Y1200D02*
X7Y1200D01*
X1262Y1200D02*
X1269Y1200D01*
X0Y1199D02*
X7Y1199D01*
X1262Y1199D02*
X1269Y1199D01*
X0Y1198D02*
X7Y1198D01*
X1262Y1198D02*
X1269Y1198D01*
X0Y1197D02*
X7Y1197D01*
X1262Y1197D02*
X1269Y1197D01*
X0Y1196D02*
X7Y1196D01*
X1262Y1196D02*
X1269Y1196D01*
X0Y1195D02*
X7Y1195D01*
X1262Y1195D02*
X1269Y1195D01*
X0Y1194D02*
X7Y1194D01*
X1262Y1194D02*
X1269Y1194D01*
X0Y1193D02*
X7Y1193D01*
X1262Y1193D02*
X1269Y1193D01*
X0Y1192D02*
X7Y1192D01*
X1262Y1192D02*
X1269Y1192D01*
X0Y1191D02*
X7Y1191D01*
X1262Y1191D02*
X1269Y1191D01*
X0Y1190D02*
X7Y1190D01*
X1262Y1190D02*
X1269Y1190D01*
X0Y1189D02*
X7Y1189D01*
X1262Y1189D02*
X1269Y1189D01*
X0Y1188D02*
X7Y1188D01*
X1262Y1188D02*
X1269Y1188D01*
X0Y1187D02*
X7Y1187D01*
X1262Y1187D02*
X1269Y1187D01*
X0Y1186D02*
X7Y1186D01*
X1262Y1186D02*
X1269Y1186D01*
X0Y1185D02*
X7Y1185D01*
X1262Y1185D02*
X1269Y1185D01*
X0Y1184D02*
X7Y1184D01*
X1262Y1184D02*
X1269Y1184D01*
X0Y1183D02*
X7Y1183D01*
X1262Y1183D02*
X1269Y1183D01*
X0Y1182D02*
X7Y1182D01*
X1262Y1182D02*
X1269Y1182D01*
X0Y1181D02*
X7Y1181D01*
X1262Y1181D02*
X1269Y1181D01*
X0Y1180D02*
X7Y1180D01*
X1262Y1180D02*
X1269Y1180D01*
X0Y1179D02*
X7Y1179D01*
X1262Y1179D02*
X1269Y1179D01*
X0Y1178D02*
X7Y1178D01*
X1262Y1178D02*
X1269Y1178D01*
X0Y1177D02*
X7Y1177D01*
X1262Y1177D02*
X1269Y1177D01*
X0Y1176D02*
X7Y1176D01*
X1262Y1176D02*
X1269Y1176D01*
X0Y1175D02*
X7Y1175D01*
X1262Y1175D02*
X1269Y1175D01*
X0Y1174D02*
X7Y1174D01*
X1262Y1174D02*
X1269Y1174D01*
X0Y1173D02*
X7Y1173D01*
X1262Y1173D02*
X1269Y1173D01*
X0Y1172D02*
X7Y1172D01*
X1262Y1172D02*
X1269Y1172D01*
X0Y1171D02*
X7Y1171D01*
X1262Y1171D02*
X1269Y1171D01*
X0Y1170D02*
X7Y1170D01*
X1262Y1170D02*
X1269Y1170D01*
X0Y1169D02*
X7Y1169D01*
X1262Y1169D02*
X1269Y1169D01*
X0Y1168D02*
X7Y1168D01*
X1262Y1168D02*
X1269Y1168D01*
X0Y1167D02*
X7Y1167D01*
X1262Y1167D02*
X1269Y1167D01*
X0Y1166D02*
X7Y1166D01*
X1262Y1166D02*
X1269Y1166D01*
X0Y1165D02*
X7Y1165D01*
X1262Y1165D02*
X1269Y1165D01*
X0Y1164D02*
X7Y1164D01*
X1262Y1164D02*
X1269Y1164D01*
X0Y1163D02*
X7Y1163D01*
X1262Y1163D02*
X1269Y1163D01*
X0Y1162D02*
X7Y1162D01*
X1262Y1162D02*
X1269Y1162D01*
X0Y1161D02*
X7Y1161D01*
X1262Y1161D02*
X1269Y1161D01*
X0Y1160D02*
X7Y1160D01*
X1262Y1160D02*
X1269Y1160D01*
X0Y1159D02*
X7Y1159D01*
X1262Y1159D02*
X1269Y1159D01*
X0Y1158D02*
X7Y1158D01*
X1262Y1158D02*
X1269Y1158D01*
X0Y1157D02*
X7Y1157D01*
X1262Y1157D02*
X1269Y1157D01*
X0Y1156D02*
X7Y1156D01*
X1262Y1156D02*
X1269Y1156D01*
X0Y1155D02*
X7Y1155D01*
X1262Y1155D02*
X1269Y1155D01*
X0Y1154D02*
X7Y1154D01*
X1262Y1154D02*
X1269Y1154D01*
X0Y1153D02*
X7Y1153D01*
X1262Y1153D02*
X1269Y1153D01*
X0Y1152D02*
X7Y1152D01*
X1262Y1152D02*
X1269Y1152D01*
X0Y1151D02*
X7Y1151D01*
X1262Y1151D02*
X1269Y1151D01*
X0Y1150D02*
X7Y1150D01*
X1262Y1150D02*
X1269Y1150D01*
X0Y1149D02*
X7Y1149D01*
X1262Y1149D02*
X1269Y1149D01*
X0Y1148D02*
X7Y1148D01*
X1262Y1148D02*
X1269Y1148D01*
X0Y1147D02*
X7Y1147D01*
X1262Y1147D02*
X1269Y1147D01*
X0Y1146D02*
X7Y1146D01*
X1262Y1146D02*
X1269Y1146D01*
X0Y1145D02*
X7Y1145D01*
X1262Y1145D02*
X1269Y1145D01*
X0Y1144D02*
X7Y1144D01*
X1262Y1144D02*
X1269Y1144D01*
X0Y1143D02*
X7Y1143D01*
X1262Y1143D02*
X1269Y1143D01*
X0Y1142D02*
X7Y1142D01*
X1262Y1142D02*
X1269Y1142D01*
X0Y1141D02*
X7Y1141D01*
X1262Y1141D02*
X1269Y1141D01*
X0Y1140D02*
X7Y1140D01*
X1262Y1140D02*
X1269Y1140D01*
X0Y1139D02*
X7Y1139D01*
X1262Y1139D02*
X1269Y1139D01*
X0Y1138D02*
X7Y1138D01*
X1262Y1138D02*
X1269Y1138D01*
X0Y1137D02*
X7Y1137D01*
X1262Y1137D02*
X1269Y1137D01*
X0Y1136D02*
X7Y1136D01*
X1262Y1136D02*
X1269Y1136D01*
X0Y1135D02*
X7Y1135D01*
X1262Y1135D02*
X1269Y1135D01*
X0Y1134D02*
X7Y1134D01*
X1262Y1134D02*
X1269Y1134D01*
X0Y1133D02*
X7Y1133D01*
X1262Y1133D02*
X1269Y1133D01*
X0Y1132D02*
X7Y1132D01*
X1262Y1132D02*
X1269Y1132D01*
X0Y1131D02*
X7Y1131D01*
X1262Y1131D02*
X1269Y1131D01*
X0Y1130D02*
X7Y1130D01*
X1262Y1130D02*
X1269Y1130D01*
X0Y1129D02*
X7Y1129D01*
X1262Y1129D02*
X1269Y1129D01*
X0Y1128D02*
X7Y1128D01*
X1262Y1128D02*
X1269Y1128D01*
X0Y1127D02*
X7Y1127D01*
X1262Y1127D02*
X1269Y1127D01*
X0Y1126D02*
X7Y1126D01*
X1262Y1126D02*
X1269Y1126D01*
X0Y1125D02*
X7Y1125D01*
X1262Y1125D02*
X1269Y1125D01*
X0Y1124D02*
X7Y1124D01*
X1262Y1124D02*
X1269Y1124D01*
X0Y1123D02*
X7Y1123D01*
X1262Y1123D02*
X1269Y1123D01*
X0Y1122D02*
X7Y1122D01*
X1262Y1122D02*
X1269Y1122D01*
X0Y1121D02*
X7Y1121D01*
X1262Y1121D02*
X1269Y1121D01*
X0Y1120D02*
X7Y1120D01*
X1262Y1120D02*
X1269Y1120D01*
X0Y1119D02*
X7Y1119D01*
X1262Y1119D02*
X1269Y1119D01*
X0Y1118D02*
X7Y1118D01*
X1262Y1118D02*
X1269Y1118D01*
X0Y1117D02*
X7Y1117D01*
X1262Y1117D02*
X1269Y1117D01*
X0Y1116D02*
X7Y1116D01*
X1262Y1116D02*
X1269Y1116D01*
X0Y1115D02*
X7Y1115D01*
X1262Y1115D02*
X1269Y1115D01*
X0Y1114D02*
X7Y1114D01*
X1262Y1114D02*
X1269Y1114D01*
X0Y1113D02*
X7Y1113D01*
X1262Y1113D02*
X1269Y1113D01*
X0Y1112D02*
X7Y1112D01*
X1262Y1112D02*
X1269Y1112D01*
X0Y1111D02*
X7Y1111D01*
X1262Y1111D02*
X1269Y1111D01*
X0Y1110D02*
X7Y1110D01*
X1262Y1110D02*
X1269Y1110D01*
X0Y1109D02*
X7Y1109D01*
X1262Y1109D02*
X1269Y1109D01*
X0Y1108D02*
X7Y1108D01*
X1262Y1108D02*
X1269Y1108D01*
X0Y1107D02*
X7Y1107D01*
X1262Y1107D02*
X1269Y1107D01*
X0Y1106D02*
X7Y1106D01*
X1262Y1106D02*
X1269Y1106D01*
X0Y1105D02*
X7Y1105D01*
X1262Y1105D02*
X1269Y1105D01*
X0Y1104D02*
X7Y1104D01*
X1262Y1104D02*
X1269Y1104D01*
X0Y1103D02*
X7Y1103D01*
X1262Y1103D02*
X1269Y1103D01*
X0Y1102D02*
X7Y1102D01*
X1262Y1102D02*
X1269Y1102D01*
X0Y1101D02*
X7Y1101D01*
X1262Y1101D02*
X1269Y1101D01*
X0Y1100D02*
X7Y1100D01*
X1262Y1100D02*
X1269Y1100D01*
X0Y1099D02*
X7Y1099D01*
X1262Y1099D02*
X1269Y1099D01*
X0Y1098D02*
X7Y1098D01*
X1262Y1098D02*
X1269Y1098D01*
X0Y1097D02*
X7Y1097D01*
X1262Y1097D02*
X1269Y1097D01*
X0Y1096D02*
X7Y1096D01*
X1262Y1096D02*
X1269Y1096D01*
X0Y1095D02*
X7Y1095D01*
X1262Y1095D02*
X1269Y1095D01*
X0Y1094D02*
X7Y1094D01*
X1262Y1094D02*
X1269Y1094D01*
X0Y1093D02*
X7Y1093D01*
X1262Y1093D02*
X1269Y1093D01*
X0Y1092D02*
X7Y1092D01*
X1262Y1092D02*
X1269Y1092D01*
X0Y1091D02*
X7Y1091D01*
X1262Y1091D02*
X1269Y1091D01*
X0Y1090D02*
X7Y1090D01*
X1262Y1090D02*
X1269Y1090D01*
X0Y1089D02*
X7Y1089D01*
X1262Y1089D02*
X1269Y1089D01*
X0Y1088D02*
X7Y1088D01*
X1262Y1088D02*
X1269Y1088D01*
X0Y1087D02*
X7Y1087D01*
X1262Y1087D02*
X1269Y1087D01*
X0Y1086D02*
X7Y1086D01*
X1262Y1086D02*
X1269Y1086D01*
X0Y1085D02*
X7Y1085D01*
X1262Y1085D02*
X1269Y1085D01*
X0Y1084D02*
X7Y1084D01*
X1262Y1084D02*
X1269Y1084D01*
X0Y1083D02*
X7Y1083D01*
X1262Y1083D02*
X1269Y1083D01*
X0Y1082D02*
X7Y1082D01*
X1262Y1082D02*
X1269Y1082D01*
X0Y1081D02*
X7Y1081D01*
X1262Y1081D02*
X1269Y1081D01*
X0Y1080D02*
X7Y1080D01*
X1262Y1080D02*
X1269Y1080D01*
X0Y1079D02*
X7Y1079D01*
X1262Y1079D02*
X1269Y1079D01*
X0Y1078D02*
X7Y1078D01*
X1262Y1078D02*
X1269Y1078D01*
X0Y1077D02*
X7Y1077D01*
X1262Y1077D02*
X1269Y1077D01*
X0Y1076D02*
X7Y1076D01*
X1262Y1076D02*
X1269Y1076D01*
X0Y1075D02*
X7Y1075D01*
X1262Y1075D02*
X1269Y1075D01*
X0Y1074D02*
X7Y1074D01*
X1262Y1074D02*
X1269Y1074D01*
X0Y1073D02*
X7Y1073D01*
X1262Y1073D02*
X1269Y1073D01*
X0Y1072D02*
X7Y1072D01*
X1262Y1072D02*
X1269Y1072D01*
X0Y1071D02*
X7Y1071D01*
X1262Y1071D02*
X1269Y1071D01*
X0Y1070D02*
X7Y1070D01*
X1262Y1070D02*
X1269Y1070D01*
X0Y1069D02*
X7Y1069D01*
X1262Y1069D02*
X1269Y1069D01*
X0Y1068D02*
X7Y1068D01*
X1262Y1068D02*
X1269Y1068D01*
X0Y1067D02*
X7Y1067D01*
X1262Y1067D02*
X1269Y1067D01*
X0Y1066D02*
X7Y1066D01*
X1262Y1066D02*
X1269Y1066D01*
X0Y1065D02*
X7Y1065D01*
X1262Y1065D02*
X1269Y1065D01*
X0Y1064D02*
X7Y1064D01*
X1262Y1064D02*
X1269Y1064D01*
X0Y1063D02*
X7Y1063D01*
X1262Y1063D02*
X1269Y1063D01*
X0Y1062D02*
X7Y1062D01*
X1262Y1062D02*
X1269Y1062D01*
X0Y1061D02*
X7Y1061D01*
X1262Y1061D02*
X1269Y1061D01*
X0Y1060D02*
X7Y1060D01*
X1262Y1060D02*
X1269Y1060D01*
X0Y1059D02*
X7Y1059D01*
X1262Y1059D02*
X1269Y1059D01*
X0Y1058D02*
X7Y1058D01*
X1262Y1058D02*
X1269Y1058D01*
X0Y1057D02*
X7Y1057D01*
X1262Y1057D02*
X1269Y1057D01*
X0Y1056D02*
X7Y1056D01*
X1262Y1056D02*
X1269Y1056D01*
X0Y1055D02*
X7Y1055D01*
X1262Y1055D02*
X1269Y1055D01*
X0Y1054D02*
X7Y1054D01*
X1262Y1054D02*
X1269Y1054D01*
X0Y1053D02*
X7Y1053D01*
X1262Y1053D02*
X1269Y1053D01*
X0Y1052D02*
X7Y1052D01*
X1262Y1052D02*
X1269Y1052D01*
X0Y1051D02*
X7Y1051D01*
X1262Y1051D02*
X1269Y1051D01*
X0Y1050D02*
X7Y1050D01*
X1262Y1050D02*
X1269Y1050D01*
X0Y1049D02*
X7Y1049D01*
X1262Y1049D02*
X1269Y1049D01*
X0Y1048D02*
X7Y1048D01*
X1262Y1048D02*
X1269Y1048D01*
X0Y1047D02*
X7Y1047D01*
X1262Y1047D02*
X1269Y1047D01*
X0Y1046D02*
X7Y1046D01*
X1262Y1046D02*
X1269Y1046D01*
X0Y1045D02*
X7Y1045D01*
X1262Y1045D02*
X1269Y1045D01*
X0Y1044D02*
X7Y1044D01*
X1262Y1044D02*
X1269Y1044D01*
X0Y1043D02*
X7Y1043D01*
X1262Y1043D02*
X1269Y1043D01*
X0Y1042D02*
X7Y1042D01*
X1262Y1042D02*
X1269Y1042D01*
X0Y1041D02*
X7Y1041D01*
X1262Y1041D02*
X1269Y1041D01*
X0Y1040D02*
X7Y1040D01*
X1262Y1040D02*
X1269Y1040D01*
X0Y1039D02*
X7Y1039D01*
X1262Y1039D02*
X1269Y1039D01*
X0Y1038D02*
X7Y1038D01*
X1262Y1038D02*
X1269Y1038D01*
X0Y1037D02*
X7Y1037D01*
X1262Y1037D02*
X1269Y1037D01*
X0Y1036D02*
X7Y1036D01*
X1262Y1036D02*
X1269Y1036D01*
X0Y1035D02*
X7Y1035D01*
X1262Y1035D02*
X1269Y1035D01*
X0Y1034D02*
X7Y1034D01*
X1262Y1034D02*
X1269Y1034D01*
X0Y1033D02*
X7Y1033D01*
X1262Y1033D02*
X1269Y1033D01*
X0Y1032D02*
X7Y1032D01*
X1262Y1032D02*
X1269Y1032D01*
X0Y1031D02*
X7Y1031D01*
X1262Y1031D02*
X1269Y1031D01*
X0Y1030D02*
X7Y1030D01*
X1262Y1030D02*
X1269Y1030D01*
X0Y1029D02*
X7Y1029D01*
X1262Y1029D02*
X1269Y1029D01*
X0Y1028D02*
X7Y1028D01*
X1262Y1028D02*
X1269Y1028D01*
X0Y1027D02*
X7Y1027D01*
X1262Y1027D02*
X1269Y1027D01*
X0Y1026D02*
X7Y1026D01*
X1262Y1026D02*
X1269Y1026D01*
X0Y1025D02*
X7Y1025D01*
X1262Y1025D02*
X1269Y1025D01*
X0Y1024D02*
X7Y1024D01*
X1262Y1024D02*
X1269Y1024D01*
X0Y1023D02*
X7Y1023D01*
X1262Y1023D02*
X1269Y1023D01*
X0Y1022D02*
X7Y1022D01*
X1262Y1022D02*
X1269Y1022D01*
X0Y1021D02*
X7Y1021D01*
X1262Y1021D02*
X1269Y1021D01*
X0Y1020D02*
X7Y1020D01*
X1262Y1020D02*
X1269Y1020D01*
X0Y1019D02*
X7Y1019D01*
X1262Y1019D02*
X1269Y1019D01*
X0Y1018D02*
X7Y1018D01*
X1262Y1018D02*
X1269Y1018D01*
X0Y1017D02*
X7Y1017D01*
X1262Y1017D02*
X1269Y1017D01*
X0Y1016D02*
X7Y1016D01*
X1262Y1016D02*
X1269Y1016D01*
X0Y1015D02*
X7Y1015D01*
X1262Y1015D02*
X1269Y1015D01*
X0Y1014D02*
X7Y1014D01*
X1262Y1014D02*
X1269Y1014D01*
X0Y1013D02*
X7Y1013D01*
X1262Y1013D02*
X1269Y1013D01*
X0Y1012D02*
X7Y1012D01*
X1262Y1012D02*
X1269Y1012D01*
X0Y1011D02*
X7Y1011D01*
X1262Y1011D02*
X1269Y1011D01*
X0Y1010D02*
X7Y1010D01*
X1262Y1010D02*
X1269Y1010D01*
X0Y1009D02*
X7Y1009D01*
X1262Y1009D02*
X1269Y1009D01*
X0Y1008D02*
X7Y1008D01*
X1262Y1008D02*
X1269Y1008D01*
X0Y1007D02*
X7Y1007D01*
X1262Y1007D02*
X1269Y1007D01*
X0Y1006D02*
X7Y1006D01*
X1262Y1006D02*
X1269Y1006D01*
X0Y1005D02*
X7Y1005D01*
X1262Y1005D02*
X1269Y1005D01*
X0Y1004D02*
X7Y1004D01*
X1262Y1004D02*
X1269Y1004D01*
X0Y1003D02*
X7Y1003D01*
X1262Y1003D02*
X1269Y1003D01*
X0Y1002D02*
X7Y1002D01*
X1262Y1002D02*
X1269Y1002D01*
X0Y1001D02*
X7Y1001D01*
X1262Y1001D02*
X1269Y1001D01*
X0Y1000D02*
X7Y1000D01*
X1262Y1000D02*
X1269Y1000D01*
X0Y999D02*
X7Y999D01*
X1262Y999D02*
X1269Y999D01*
X0Y998D02*
X7Y998D01*
X1262Y998D02*
X1269Y998D01*
X0Y997D02*
X7Y997D01*
X1262Y997D02*
X1269Y997D01*
X0Y996D02*
X7Y996D01*
X1262Y996D02*
X1269Y996D01*
X0Y995D02*
X7Y995D01*
X1262Y995D02*
X1269Y995D01*
X0Y994D02*
X7Y994D01*
X1262Y994D02*
X1269Y994D01*
X0Y993D02*
X7Y993D01*
X1262Y993D02*
X1269Y993D01*
X0Y992D02*
X7Y992D01*
X1262Y992D02*
X1269Y992D01*
X0Y991D02*
X7Y991D01*
X1262Y991D02*
X1269Y991D01*
X0Y990D02*
X7Y990D01*
X1262Y990D02*
X1269Y990D01*
X0Y989D02*
X7Y989D01*
X1262Y989D02*
X1269Y989D01*
X0Y988D02*
X7Y988D01*
X1262Y988D02*
X1269Y988D01*
X0Y987D02*
X7Y987D01*
X1262Y987D02*
X1269Y987D01*
X0Y986D02*
X7Y986D01*
X1262Y986D02*
X1269Y986D01*
X0Y985D02*
X7Y985D01*
X1262Y985D02*
X1269Y985D01*
X0Y984D02*
X7Y984D01*
X1262Y984D02*
X1269Y984D01*
X0Y983D02*
X7Y983D01*
X1262Y983D02*
X1269Y983D01*
X0Y982D02*
X7Y982D01*
X1262Y982D02*
X1269Y982D01*
X0Y981D02*
X7Y981D01*
X1262Y981D02*
X1269Y981D01*
X0Y980D02*
X7Y980D01*
X1262Y980D02*
X1269Y980D01*
X0Y979D02*
X7Y979D01*
X1262Y979D02*
X1269Y979D01*
X0Y978D02*
X7Y978D01*
X1262Y978D02*
X1269Y978D01*
X0Y977D02*
X7Y977D01*
X1262Y977D02*
X1269Y977D01*
X0Y976D02*
X7Y976D01*
X1262Y976D02*
X1269Y976D01*
X0Y975D02*
X7Y975D01*
X1262Y975D02*
X1269Y975D01*
X0Y974D02*
X7Y974D01*
X1262Y974D02*
X1269Y974D01*
X0Y973D02*
X7Y973D01*
X1262Y973D02*
X1269Y973D01*
X0Y972D02*
X7Y972D01*
X1262Y972D02*
X1269Y972D01*
X0Y971D02*
X7Y971D01*
X1262Y971D02*
X1269Y971D01*
X0Y970D02*
X7Y970D01*
X1262Y970D02*
X1269Y970D01*
X0Y969D02*
X7Y969D01*
X1262Y969D02*
X1269Y969D01*
X0Y968D02*
X7Y968D01*
X1262Y968D02*
X1269Y968D01*
X0Y967D02*
X7Y967D01*
X1262Y967D02*
X1269Y967D01*
X0Y966D02*
X7Y966D01*
X1262Y966D02*
X1269Y966D01*
X0Y965D02*
X7Y965D01*
X1262Y965D02*
X1269Y965D01*
X0Y964D02*
X7Y964D01*
X1262Y964D02*
X1269Y964D01*
X0Y963D02*
X7Y963D01*
X1262Y963D02*
X1269Y963D01*
X0Y962D02*
X7Y962D01*
X1262Y962D02*
X1269Y962D01*
X0Y961D02*
X7Y961D01*
X1262Y961D02*
X1269Y961D01*
X0Y960D02*
X7Y960D01*
X1262Y960D02*
X1269Y960D01*
X0Y959D02*
X7Y959D01*
X1262Y959D02*
X1269Y959D01*
X0Y958D02*
X7Y958D01*
X1262Y958D02*
X1269Y958D01*
X0Y957D02*
X7Y957D01*
X1262Y957D02*
X1269Y957D01*
X0Y956D02*
X7Y956D01*
X1262Y956D02*
X1269Y956D01*
X0Y955D02*
X7Y955D01*
X1262Y955D02*
X1269Y955D01*
X0Y954D02*
X7Y954D01*
X1262Y954D02*
X1269Y954D01*
X0Y953D02*
X7Y953D01*
X1262Y953D02*
X1269Y953D01*
X0Y952D02*
X7Y952D01*
X1262Y952D02*
X1269Y952D01*
X0Y951D02*
X7Y951D01*
X1262Y951D02*
X1269Y951D01*
X0Y950D02*
X7Y950D01*
X1262Y950D02*
X1269Y950D01*
X0Y949D02*
X7Y949D01*
X1262Y949D02*
X1269Y949D01*
X0Y948D02*
X7Y948D01*
X1262Y948D02*
X1269Y948D01*
X0Y947D02*
X7Y947D01*
X1262Y947D02*
X1269Y947D01*
X0Y946D02*
X7Y946D01*
X1262Y946D02*
X1269Y946D01*
X0Y945D02*
X7Y945D01*
X1262Y945D02*
X1269Y945D01*
X0Y944D02*
X7Y944D01*
X1262Y944D02*
X1269Y944D01*
X0Y943D02*
X7Y943D01*
X1262Y943D02*
X1269Y943D01*
X0Y942D02*
X7Y942D01*
X1262Y942D02*
X1269Y942D01*
X0Y941D02*
X7Y941D01*
X1262Y941D02*
X1269Y941D01*
X0Y940D02*
X7Y940D01*
X1262Y940D02*
X1269Y940D01*
X0Y939D02*
X7Y939D01*
X1262Y939D02*
X1269Y939D01*
X0Y938D02*
X7Y938D01*
X1262Y938D02*
X1269Y938D01*
X0Y937D02*
X7Y937D01*
X1262Y937D02*
X1269Y937D01*
X0Y936D02*
X7Y936D01*
X1262Y936D02*
X1269Y936D01*
X0Y935D02*
X7Y935D01*
X1262Y935D02*
X1269Y935D01*
X0Y934D02*
X7Y934D01*
X1262Y934D02*
X1269Y934D01*
X0Y933D02*
X7Y933D01*
X1262Y933D02*
X1269Y933D01*
X0Y932D02*
X7Y932D01*
X1262Y932D02*
X1269Y932D01*
X0Y931D02*
X7Y931D01*
X1262Y931D02*
X1269Y931D01*
X0Y930D02*
X7Y930D01*
X1262Y930D02*
X1269Y930D01*
X0Y929D02*
X7Y929D01*
X1262Y929D02*
X1269Y929D01*
X0Y928D02*
X7Y928D01*
X1262Y928D02*
X1269Y928D01*
X0Y927D02*
X7Y927D01*
X1262Y927D02*
X1269Y927D01*
X0Y926D02*
X7Y926D01*
X1262Y926D02*
X1269Y926D01*
X0Y925D02*
X7Y925D01*
X1262Y925D02*
X1269Y925D01*
X0Y924D02*
X7Y924D01*
X1262Y924D02*
X1269Y924D01*
X0Y923D02*
X7Y923D01*
X1262Y923D02*
X1269Y923D01*
X0Y922D02*
X7Y922D01*
X1262Y922D02*
X1269Y922D01*
X0Y921D02*
X7Y921D01*
X1262Y921D02*
X1269Y921D01*
X0Y920D02*
X7Y920D01*
X1262Y920D02*
X1269Y920D01*
X0Y919D02*
X7Y919D01*
X1262Y919D02*
X1269Y919D01*
X0Y918D02*
X7Y918D01*
X1262Y918D02*
X1269Y918D01*
X0Y917D02*
X7Y917D01*
X1262Y917D02*
X1269Y917D01*
X0Y916D02*
X7Y916D01*
X1262Y916D02*
X1269Y916D01*
X0Y915D02*
X7Y915D01*
X1262Y915D02*
X1269Y915D01*
X0Y914D02*
X7Y914D01*
X1262Y914D02*
X1269Y914D01*
X0Y913D02*
X7Y913D01*
X1262Y913D02*
X1269Y913D01*
X0Y912D02*
X7Y912D01*
X1262Y912D02*
X1269Y912D01*
X0Y911D02*
X7Y911D01*
X1262Y911D02*
X1269Y911D01*
X0Y910D02*
X7Y910D01*
X1262Y910D02*
X1269Y910D01*
X0Y909D02*
X7Y909D01*
X1262Y909D02*
X1269Y909D01*
X0Y908D02*
X7Y908D01*
X1262Y908D02*
X1269Y908D01*
X0Y907D02*
X7Y907D01*
X1262Y907D02*
X1269Y907D01*
X0Y906D02*
X7Y906D01*
X1262Y906D02*
X1269Y906D01*
X0Y905D02*
X7Y905D01*
X1262Y905D02*
X1269Y905D01*
X0Y904D02*
X7Y904D01*
X1262Y904D02*
X1269Y904D01*
X0Y903D02*
X7Y903D01*
X1262Y903D02*
X1269Y903D01*
X0Y902D02*
X7Y902D01*
X1262Y902D02*
X1269Y902D01*
X0Y901D02*
X7Y901D01*
X1262Y901D02*
X1269Y901D01*
X0Y900D02*
X7Y900D01*
X1262Y900D02*
X1269Y900D01*
X0Y899D02*
X7Y899D01*
X1262Y899D02*
X1269Y899D01*
X0Y898D02*
X7Y898D01*
X1262Y898D02*
X1269Y898D01*
X0Y897D02*
X7Y897D01*
X1262Y897D02*
X1269Y897D01*
X0Y896D02*
X7Y896D01*
X1262Y896D02*
X1269Y896D01*
X0Y895D02*
X7Y895D01*
X1262Y895D02*
X1269Y895D01*
X0Y894D02*
X7Y894D01*
X1262Y894D02*
X1269Y894D01*
X0Y893D02*
X7Y893D01*
X1262Y893D02*
X1269Y893D01*
X0Y892D02*
X7Y892D01*
X1262Y892D02*
X1269Y892D01*
X0Y891D02*
X7Y891D01*
X1262Y891D02*
X1269Y891D01*
X0Y890D02*
X7Y890D01*
X1262Y890D02*
X1269Y890D01*
X0Y889D02*
X7Y889D01*
X1262Y889D02*
X1269Y889D01*
X0Y888D02*
X7Y888D01*
X1262Y888D02*
X1269Y888D01*
X0Y887D02*
X7Y887D01*
X1262Y887D02*
X1269Y887D01*
X0Y886D02*
X7Y886D01*
X1262Y886D02*
X1269Y886D01*
X0Y885D02*
X7Y885D01*
X1262Y885D02*
X1269Y885D01*
X0Y884D02*
X7Y884D01*
X1262Y884D02*
X1269Y884D01*
X0Y883D02*
X7Y883D01*
X1262Y883D02*
X1269Y883D01*
X0Y882D02*
X7Y882D01*
X1262Y882D02*
X1269Y882D01*
X0Y881D02*
X7Y881D01*
X1262Y881D02*
X1269Y881D01*
X0Y880D02*
X7Y880D01*
X1262Y880D02*
X1269Y880D01*
X0Y879D02*
X7Y879D01*
X1262Y879D02*
X1269Y879D01*
X0Y878D02*
X7Y878D01*
X1262Y878D02*
X1269Y878D01*
X0Y877D02*
X7Y877D01*
X1262Y877D02*
X1269Y877D01*
X0Y876D02*
X7Y876D01*
X1262Y876D02*
X1269Y876D01*
X0Y875D02*
X7Y875D01*
X1262Y875D02*
X1269Y875D01*
X0Y874D02*
X7Y874D01*
X1262Y874D02*
X1269Y874D01*
X0Y873D02*
X7Y873D01*
X1262Y873D02*
X1269Y873D01*
X0Y872D02*
X7Y872D01*
X1262Y872D02*
X1269Y872D01*
X0Y871D02*
X7Y871D01*
X1262Y871D02*
X1269Y871D01*
X0Y870D02*
X7Y870D01*
X1262Y870D02*
X1269Y870D01*
X0Y869D02*
X7Y869D01*
X1262Y869D02*
X1269Y869D01*
X0Y868D02*
X7Y868D01*
X1262Y868D02*
X1269Y868D01*
X0Y867D02*
X7Y867D01*
X1262Y867D02*
X1269Y867D01*
X0Y866D02*
X7Y866D01*
X1262Y866D02*
X1269Y866D01*
X0Y865D02*
X7Y865D01*
X1262Y865D02*
X1269Y865D01*
X0Y864D02*
X7Y864D01*
X1262Y864D02*
X1269Y864D01*
X0Y863D02*
X7Y863D01*
X1262Y863D02*
X1269Y863D01*
X0Y862D02*
X7Y862D01*
X1262Y862D02*
X1269Y862D01*
X0Y861D02*
X7Y861D01*
X1262Y861D02*
X1269Y861D01*
X0Y860D02*
X7Y860D01*
X1262Y860D02*
X1269Y860D01*
X0Y859D02*
X7Y859D01*
X1262Y859D02*
X1269Y859D01*
X0Y858D02*
X7Y858D01*
X1262Y858D02*
X1269Y858D01*
X0Y857D02*
X7Y857D01*
X1262Y857D02*
X1269Y857D01*
X0Y856D02*
X7Y856D01*
X1262Y856D02*
X1269Y856D01*
X0Y855D02*
X7Y855D01*
X1262Y855D02*
X1269Y855D01*
X0Y854D02*
X7Y854D01*
X1262Y854D02*
X1269Y854D01*
X0Y853D02*
X7Y853D01*
X1262Y853D02*
X1269Y853D01*
X0Y852D02*
X7Y852D01*
X1262Y852D02*
X1269Y852D01*
X0Y851D02*
X7Y851D01*
X1262Y851D02*
X1269Y851D01*
X0Y850D02*
X7Y850D01*
X1262Y850D02*
X1269Y850D01*
X0Y849D02*
X7Y849D01*
X1262Y849D02*
X1269Y849D01*
X0Y848D02*
X7Y848D01*
X1262Y848D02*
X1269Y848D01*
X0Y847D02*
X7Y847D01*
X1262Y847D02*
X1269Y847D01*
X0Y846D02*
X7Y846D01*
X1262Y846D02*
X1269Y846D01*
X0Y845D02*
X7Y845D01*
X1262Y845D02*
X1269Y845D01*
X0Y844D02*
X7Y844D01*
X1262Y844D02*
X1269Y844D01*
X0Y843D02*
X7Y843D01*
X1262Y843D02*
X1269Y843D01*
X0Y842D02*
X7Y842D01*
X1262Y842D02*
X1269Y842D01*
X0Y841D02*
X7Y841D01*
X1262Y841D02*
X1269Y841D01*
X0Y840D02*
X7Y840D01*
X1262Y840D02*
X1269Y840D01*
X0Y839D02*
X7Y839D01*
X1262Y839D02*
X1269Y839D01*
X0Y838D02*
X7Y838D01*
X1262Y838D02*
X1269Y838D01*
X0Y837D02*
X7Y837D01*
X1262Y837D02*
X1269Y837D01*
X0Y836D02*
X7Y836D01*
X1262Y836D02*
X1269Y836D01*
X0Y835D02*
X7Y835D01*
X1262Y835D02*
X1269Y835D01*
X0Y834D02*
X7Y834D01*
X1262Y834D02*
X1269Y834D01*
X0Y833D02*
X7Y833D01*
X1262Y833D02*
X1269Y833D01*
X0Y832D02*
X7Y832D01*
X1262Y832D02*
X1269Y832D01*
X0Y831D02*
X7Y831D01*
X1262Y831D02*
X1269Y831D01*
X0Y830D02*
X7Y830D01*
X1262Y830D02*
X1269Y830D01*
X0Y829D02*
X7Y829D01*
X1262Y829D02*
X1269Y829D01*
X0Y828D02*
X7Y828D01*
X1262Y828D02*
X1269Y828D01*
X0Y827D02*
X7Y827D01*
X1262Y827D02*
X1269Y827D01*
X0Y826D02*
X7Y826D01*
X1262Y826D02*
X1269Y826D01*
X0Y825D02*
X7Y825D01*
X1262Y825D02*
X1269Y825D01*
X0Y824D02*
X7Y824D01*
X1262Y824D02*
X1269Y824D01*
X0Y823D02*
X7Y823D01*
X1262Y823D02*
X1269Y823D01*
X0Y822D02*
X7Y822D01*
X1262Y822D02*
X1269Y822D01*
X0Y821D02*
X7Y821D01*
X1262Y821D02*
X1269Y821D01*
X0Y820D02*
X7Y820D01*
X1262Y820D02*
X1269Y820D01*
X0Y819D02*
X7Y819D01*
X1262Y819D02*
X1269Y819D01*
X0Y818D02*
X7Y818D01*
X1262Y818D02*
X1269Y818D01*
X0Y817D02*
X7Y817D01*
X1262Y817D02*
X1269Y817D01*
X0Y816D02*
X7Y816D01*
X1262Y816D02*
X1269Y816D01*
X0Y815D02*
X7Y815D01*
X1262Y815D02*
X1269Y815D01*
X0Y814D02*
X7Y814D01*
X1262Y814D02*
X1269Y814D01*
X0Y813D02*
X7Y813D01*
X1262Y813D02*
X1269Y813D01*
X0Y812D02*
X7Y812D01*
X1262Y812D02*
X1269Y812D01*
X0Y811D02*
X7Y811D01*
X1262Y811D02*
X1269Y811D01*
X0Y810D02*
X7Y810D01*
X1262Y810D02*
X1269Y810D01*
X0Y809D02*
X7Y809D01*
X1262Y809D02*
X1269Y809D01*
X0Y808D02*
X7Y808D01*
X1262Y808D02*
X1269Y808D01*
X0Y807D02*
X7Y807D01*
X1262Y807D02*
X1269Y807D01*
X0Y806D02*
X7Y806D01*
X1262Y806D02*
X1269Y806D01*
X0Y805D02*
X7Y805D01*
X1262Y805D02*
X1269Y805D01*
X0Y804D02*
X7Y804D01*
X1262Y804D02*
X1269Y804D01*
X0Y803D02*
X7Y803D01*
X1262Y803D02*
X1269Y803D01*
X0Y802D02*
X7Y802D01*
X1262Y802D02*
X1269Y802D01*
X0Y801D02*
X7Y801D01*
X1262Y801D02*
X1269Y801D01*
X0Y800D02*
X7Y800D01*
X1262Y800D02*
X1269Y800D01*
X0Y799D02*
X7Y799D01*
X1262Y799D02*
X1269Y799D01*
X0Y798D02*
X7Y798D01*
X1262Y798D02*
X1269Y798D01*
X0Y797D02*
X7Y797D01*
X1262Y797D02*
X1269Y797D01*
X0Y796D02*
X7Y796D01*
X1262Y796D02*
X1269Y796D01*
X0Y795D02*
X7Y795D01*
X1262Y795D02*
X1269Y795D01*
X0Y794D02*
X7Y794D01*
X1262Y794D02*
X1269Y794D01*
X0Y793D02*
X7Y793D01*
X1262Y793D02*
X1269Y793D01*
X0Y792D02*
X7Y792D01*
X1262Y792D02*
X1269Y792D01*
X0Y791D02*
X7Y791D01*
X1262Y791D02*
X1269Y791D01*
X0Y790D02*
X7Y790D01*
X1262Y790D02*
X1269Y790D01*
X0Y789D02*
X7Y789D01*
X1262Y789D02*
X1269Y789D01*
X0Y788D02*
X7Y788D01*
X1262Y788D02*
X1269Y788D01*
X0Y787D02*
X7Y787D01*
X1262Y787D02*
X1269Y787D01*
X0Y786D02*
X7Y786D01*
X1262Y786D02*
X1269Y786D01*
X0Y785D02*
X7Y785D01*
X1262Y785D02*
X1269Y785D01*
X0Y784D02*
X7Y784D01*
X1262Y784D02*
X1269Y784D01*
X0Y783D02*
X7Y783D01*
X1262Y783D02*
X1269Y783D01*
X0Y782D02*
X7Y782D01*
X1262Y782D02*
X1269Y782D01*
X0Y781D02*
X7Y781D01*
X1262Y781D02*
X1269Y781D01*
X0Y780D02*
X7Y780D01*
X1262Y780D02*
X1269Y780D01*
X0Y779D02*
X7Y779D01*
X1262Y779D02*
X1269Y779D01*
X0Y778D02*
X7Y778D01*
X1262Y778D02*
X1269Y778D01*
X0Y777D02*
X7Y777D01*
X1262Y777D02*
X1269Y777D01*
X0Y776D02*
X7Y776D01*
X1262Y776D02*
X1269Y776D01*
X0Y775D02*
X7Y775D01*
X1262Y775D02*
X1269Y775D01*
X0Y774D02*
X7Y774D01*
X1262Y774D02*
X1269Y774D01*
X0Y773D02*
X7Y773D01*
X1262Y773D02*
X1269Y773D01*
X0Y772D02*
X7Y772D01*
X1262Y772D02*
X1269Y772D01*
X0Y771D02*
X7Y771D01*
X1262Y771D02*
X1269Y771D01*
X0Y770D02*
X7Y770D01*
X1262Y770D02*
X1269Y770D01*
X0Y769D02*
X7Y769D01*
X1262Y769D02*
X1269Y769D01*
X0Y768D02*
X7Y768D01*
X1262Y768D02*
X1269Y768D01*
X0Y767D02*
X7Y767D01*
X1262Y767D02*
X1269Y767D01*
X0Y766D02*
X7Y766D01*
X1262Y766D02*
X1269Y766D01*
X0Y765D02*
X7Y765D01*
X1262Y765D02*
X1269Y765D01*
X0Y764D02*
X7Y764D01*
X1262Y764D02*
X1269Y764D01*
X0Y763D02*
X7Y763D01*
X1262Y763D02*
X1269Y763D01*
X0Y762D02*
X7Y762D01*
X1262Y762D02*
X1269Y762D01*
X0Y761D02*
X7Y761D01*
X1262Y761D02*
X1269Y761D01*
X0Y760D02*
X7Y760D01*
X1262Y760D02*
X1269Y760D01*
X0Y759D02*
X7Y759D01*
X1262Y759D02*
X1269Y759D01*
X0Y758D02*
X7Y758D01*
X1262Y758D02*
X1269Y758D01*
X0Y757D02*
X7Y757D01*
X1262Y757D02*
X1269Y757D01*
X0Y756D02*
X7Y756D01*
X1262Y756D02*
X1269Y756D01*
X0Y755D02*
X7Y755D01*
X1262Y755D02*
X1269Y755D01*
X0Y754D02*
X7Y754D01*
X1262Y754D02*
X1269Y754D01*
X0Y753D02*
X7Y753D01*
X1262Y753D02*
X1269Y753D01*
X0Y752D02*
X7Y752D01*
X1262Y752D02*
X1269Y752D01*
X0Y751D02*
X7Y751D01*
X1262Y751D02*
X1269Y751D01*
X0Y750D02*
X7Y750D01*
X1262Y750D02*
X1269Y750D01*
X0Y749D02*
X7Y749D01*
X1262Y749D02*
X1269Y749D01*
X0Y748D02*
X7Y748D01*
X1262Y748D02*
X1269Y748D01*
X0Y747D02*
X7Y747D01*
X1262Y747D02*
X1269Y747D01*
X0Y746D02*
X7Y746D01*
X1262Y746D02*
X1269Y746D01*
X0Y745D02*
X7Y745D01*
X1262Y745D02*
X1269Y745D01*
X0Y744D02*
X7Y744D01*
X1262Y744D02*
X1269Y744D01*
X0Y743D02*
X7Y743D01*
X1262Y743D02*
X1269Y743D01*
X0Y742D02*
X7Y742D01*
X1262Y742D02*
X1269Y742D01*
X0Y741D02*
X7Y741D01*
X1262Y741D02*
X1269Y741D01*
X0Y740D02*
X7Y740D01*
X1262Y740D02*
X1269Y740D01*
X0Y739D02*
X7Y739D01*
X1262Y739D02*
X1269Y739D01*
X0Y738D02*
X7Y738D01*
X1262Y738D02*
X1269Y738D01*
X0Y737D02*
X7Y737D01*
X1262Y737D02*
X1269Y737D01*
X0Y736D02*
X7Y736D01*
X1262Y736D02*
X1269Y736D01*
X0Y735D02*
X7Y735D01*
X1262Y735D02*
X1269Y735D01*
X0Y734D02*
X7Y734D01*
X1262Y734D02*
X1269Y734D01*
X0Y733D02*
X7Y733D01*
X1262Y733D02*
X1269Y733D01*
X0Y732D02*
X7Y732D01*
X1262Y732D02*
X1269Y732D01*
X0Y731D02*
X7Y731D01*
X1262Y731D02*
X1269Y731D01*
X0Y730D02*
X7Y730D01*
X1262Y730D02*
X1269Y730D01*
X0Y729D02*
X7Y729D01*
X1262Y729D02*
X1269Y729D01*
X0Y728D02*
X7Y728D01*
X1262Y728D02*
X1269Y728D01*
X0Y727D02*
X7Y727D01*
X1262Y727D02*
X1269Y727D01*
X0Y726D02*
X7Y726D01*
X1262Y726D02*
X1269Y726D01*
X0Y725D02*
X7Y725D01*
X1262Y725D02*
X1269Y725D01*
X0Y724D02*
X7Y724D01*
X1262Y724D02*
X1269Y724D01*
X0Y723D02*
X7Y723D01*
X1262Y723D02*
X1269Y723D01*
X0Y722D02*
X7Y722D01*
X1262Y722D02*
X1269Y722D01*
X0Y721D02*
X7Y721D01*
X1262Y721D02*
X1269Y721D01*
X0Y720D02*
X7Y720D01*
X1262Y720D02*
X1269Y720D01*
X0Y719D02*
X7Y719D01*
X1262Y719D02*
X1269Y719D01*
X0Y718D02*
X7Y718D01*
X1262Y718D02*
X1269Y718D01*
X0Y717D02*
X7Y717D01*
X1262Y717D02*
X1269Y717D01*
X0Y716D02*
X7Y716D01*
X1262Y716D02*
X1269Y716D01*
X0Y715D02*
X7Y715D01*
X1262Y715D02*
X1269Y715D01*
X0Y714D02*
X7Y714D01*
X1262Y714D02*
X1269Y714D01*
X0Y713D02*
X7Y713D01*
X1262Y713D02*
X1269Y713D01*
X0Y712D02*
X7Y712D01*
X1262Y712D02*
X1269Y712D01*
X0Y711D02*
X7Y711D01*
X1262Y711D02*
X1269Y711D01*
X0Y710D02*
X7Y710D01*
X1262Y710D02*
X1269Y710D01*
X0Y709D02*
X7Y709D01*
X1262Y709D02*
X1269Y709D01*
X0Y708D02*
X7Y708D01*
X1262Y708D02*
X1269Y708D01*
X0Y707D02*
X7Y707D01*
X1262Y707D02*
X1269Y707D01*
X0Y706D02*
X7Y706D01*
X1262Y706D02*
X1269Y706D01*
X0Y705D02*
X7Y705D01*
X1262Y705D02*
X1269Y705D01*
X0Y704D02*
X7Y704D01*
X1262Y704D02*
X1269Y704D01*
X0Y703D02*
X7Y703D01*
X1262Y703D02*
X1269Y703D01*
X0Y702D02*
X7Y702D01*
X1262Y702D02*
X1269Y702D01*
X0Y701D02*
X7Y701D01*
X1262Y701D02*
X1269Y701D01*
X0Y700D02*
X7Y700D01*
X1262Y700D02*
X1269Y700D01*
X0Y699D02*
X7Y699D01*
X1262Y699D02*
X1269Y699D01*
X0Y698D02*
X7Y698D01*
X1262Y698D02*
X1269Y698D01*
X0Y697D02*
X7Y697D01*
X1262Y697D02*
X1269Y697D01*
X0Y696D02*
X7Y696D01*
X1262Y696D02*
X1269Y696D01*
X0Y695D02*
X7Y695D01*
X1262Y695D02*
X1269Y695D01*
X0Y694D02*
X7Y694D01*
X1262Y694D02*
X1269Y694D01*
X0Y693D02*
X7Y693D01*
X1262Y693D02*
X1269Y693D01*
X0Y692D02*
X7Y692D01*
X1262Y692D02*
X1269Y692D01*
X0Y691D02*
X7Y691D01*
X1262Y691D02*
X1269Y691D01*
X0Y690D02*
X7Y690D01*
X1262Y690D02*
X1269Y690D01*
X0Y689D02*
X7Y689D01*
X1262Y689D02*
X1269Y689D01*
X0Y688D02*
X7Y688D01*
X1262Y688D02*
X1269Y688D01*
X0Y687D02*
X7Y687D01*
X1262Y687D02*
X1269Y687D01*
X0Y686D02*
X7Y686D01*
X1262Y686D02*
X1269Y686D01*
X0Y685D02*
X7Y685D01*
X1262Y685D02*
X1269Y685D01*
X0Y684D02*
X7Y684D01*
X1262Y684D02*
X1269Y684D01*
X0Y683D02*
X7Y683D01*
X1262Y683D02*
X1269Y683D01*
X0Y682D02*
X7Y682D01*
X1262Y682D02*
X1269Y682D01*
X0Y681D02*
X7Y681D01*
X1262Y681D02*
X1269Y681D01*
X0Y680D02*
X7Y680D01*
X1262Y680D02*
X1269Y680D01*
X0Y679D02*
X7Y679D01*
X1262Y679D02*
X1269Y679D01*
X0Y678D02*
X7Y678D01*
X1262Y678D02*
X1269Y678D01*
X0Y677D02*
X7Y677D01*
X1262Y677D02*
X1269Y677D01*
X0Y676D02*
X7Y676D01*
X1262Y676D02*
X1269Y676D01*
X0Y675D02*
X7Y675D01*
X1262Y675D02*
X1269Y675D01*
X0Y674D02*
X7Y674D01*
X1262Y674D02*
X1269Y674D01*
X0Y673D02*
X7Y673D01*
X1262Y673D02*
X1269Y673D01*
X0Y672D02*
X7Y672D01*
X1262Y672D02*
X1269Y672D01*
X0Y671D02*
X7Y671D01*
X1262Y671D02*
X1269Y671D01*
X0Y670D02*
X7Y670D01*
X1262Y670D02*
X1269Y670D01*
X0Y669D02*
X7Y669D01*
X1262Y669D02*
X1269Y669D01*
X0Y668D02*
X7Y668D01*
X1262Y668D02*
X1269Y668D01*
X0Y667D02*
X7Y667D01*
X1262Y667D02*
X1269Y667D01*
X0Y666D02*
X7Y666D01*
X1262Y666D02*
X1269Y666D01*
X0Y665D02*
X7Y665D01*
X1262Y665D02*
X1269Y665D01*
X0Y664D02*
X7Y664D01*
X1262Y664D02*
X1269Y664D01*
X0Y663D02*
X7Y663D01*
X1262Y663D02*
X1269Y663D01*
X0Y662D02*
X7Y662D01*
X1262Y662D02*
X1269Y662D01*
X0Y661D02*
X7Y661D01*
X1262Y661D02*
X1269Y661D01*
X0Y660D02*
X7Y660D01*
X1262Y660D02*
X1269Y660D01*
X0Y659D02*
X7Y659D01*
X1262Y659D02*
X1269Y659D01*
X0Y658D02*
X7Y658D01*
X1262Y658D02*
X1269Y658D01*
X0Y657D02*
X7Y657D01*
X1262Y657D02*
X1269Y657D01*
X0Y656D02*
X7Y656D01*
X1262Y656D02*
X1269Y656D01*
X0Y655D02*
X7Y655D01*
X1262Y655D02*
X1269Y655D01*
X0Y654D02*
X7Y654D01*
X1262Y654D02*
X1269Y654D01*
X0Y653D02*
X7Y653D01*
X1262Y653D02*
X1269Y653D01*
X0Y652D02*
X7Y652D01*
X1262Y652D02*
X1269Y652D01*
X0Y651D02*
X7Y651D01*
X1262Y651D02*
X1269Y651D01*
X0Y650D02*
X7Y650D01*
X1262Y650D02*
X1269Y650D01*
X0Y649D02*
X7Y649D01*
X1262Y649D02*
X1269Y649D01*
X0Y648D02*
X7Y648D01*
X1262Y648D02*
X1269Y648D01*
X0Y647D02*
X7Y647D01*
X1262Y647D02*
X1269Y647D01*
X0Y646D02*
X7Y646D01*
X1262Y646D02*
X1269Y646D01*
X0Y645D02*
X7Y645D01*
X1262Y645D02*
X1269Y645D01*
X0Y644D02*
X7Y644D01*
X1262Y644D02*
X1269Y644D01*
X0Y643D02*
X7Y643D01*
X1262Y643D02*
X1269Y643D01*
X0Y642D02*
X7Y642D01*
X1262Y642D02*
X1269Y642D01*
X0Y641D02*
X7Y641D01*
X1262Y641D02*
X1269Y641D01*
X0Y640D02*
X7Y640D01*
X1262Y640D02*
X1269Y640D01*
X0Y639D02*
X7Y639D01*
X1262Y639D02*
X1269Y639D01*
X0Y638D02*
X7Y638D01*
X1262Y638D02*
X1269Y638D01*
X0Y637D02*
X7Y637D01*
X1262Y637D02*
X1269Y637D01*
X0Y636D02*
X7Y636D01*
X1262Y636D02*
X1269Y636D01*
X0Y635D02*
X7Y635D01*
X1262Y635D02*
X1269Y635D01*
X0Y634D02*
X7Y634D01*
X1262Y634D02*
X1269Y634D01*
X0Y633D02*
X7Y633D01*
X1262Y633D02*
X1269Y633D01*
X0Y632D02*
X7Y632D01*
X1262Y632D02*
X1269Y632D01*
X0Y631D02*
X7Y631D01*
X1262Y631D02*
X1269Y631D01*
X0Y630D02*
X7Y630D01*
X1262Y630D02*
X1269Y630D01*
X0Y629D02*
X7Y629D01*
X1262Y629D02*
X1269Y629D01*
X0Y628D02*
X7Y628D01*
X1262Y628D02*
X1269Y628D01*
X0Y627D02*
X7Y627D01*
X1262Y627D02*
X1269Y627D01*
X0Y626D02*
X7Y626D01*
X1262Y626D02*
X1269Y626D01*
X0Y625D02*
X7Y625D01*
X1262Y625D02*
X1269Y625D01*
X0Y624D02*
X7Y624D01*
X1262Y624D02*
X1269Y624D01*
X0Y623D02*
X7Y623D01*
X1262Y623D02*
X1269Y623D01*
X0Y622D02*
X7Y622D01*
X1262Y622D02*
X1269Y622D01*
X0Y621D02*
X7Y621D01*
X1262Y621D02*
X1269Y621D01*
X0Y620D02*
X7Y620D01*
X1262Y620D02*
X1269Y620D01*
X0Y619D02*
X7Y619D01*
X1262Y619D02*
X1269Y619D01*
X0Y618D02*
X7Y618D01*
X1262Y618D02*
X1269Y618D01*
X0Y617D02*
X7Y617D01*
X1262Y617D02*
X1269Y617D01*
X0Y616D02*
X7Y616D01*
X1262Y616D02*
X1269Y616D01*
X0Y615D02*
X7Y615D01*
X1262Y615D02*
X1269Y615D01*
X0Y614D02*
X7Y614D01*
X1262Y614D02*
X1269Y614D01*
X0Y613D02*
X7Y613D01*
X1262Y613D02*
X1269Y613D01*
X0Y612D02*
X7Y612D01*
X1262Y612D02*
X1269Y612D01*
X0Y611D02*
X7Y611D01*
X1262Y611D02*
X1269Y611D01*
X0Y610D02*
X7Y610D01*
X1262Y610D02*
X1269Y610D01*
X0Y609D02*
X7Y609D01*
X1262Y609D02*
X1269Y609D01*
X0Y608D02*
X7Y608D01*
X1262Y608D02*
X1269Y608D01*
X0Y607D02*
X7Y607D01*
X1262Y607D02*
X1269Y607D01*
X0Y606D02*
X7Y606D01*
X1262Y606D02*
X1269Y606D01*
X0Y605D02*
X7Y605D01*
X1262Y605D02*
X1269Y605D01*
X0Y604D02*
X7Y604D01*
X1262Y604D02*
X1269Y604D01*
X0Y603D02*
X7Y603D01*
X1262Y603D02*
X1269Y603D01*
X0Y602D02*
X7Y602D01*
X1262Y602D02*
X1269Y602D01*
X0Y601D02*
X7Y601D01*
X1262Y601D02*
X1269Y601D01*
X0Y600D02*
X7Y600D01*
X1262Y600D02*
X1269Y600D01*
X0Y599D02*
X7Y599D01*
X1262Y599D02*
X1269Y599D01*
X0Y598D02*
X7Y598D01*
X1262Y598D02*
X1269Y598D01*
X0Y597D02*
X7Y597D01*
X1262Y597D02*
X1269Y597D01*
X0Y596D02*
X7Y596D01*
X1262Y596D02*
X1269Y596D01*
X0Y595D02*
X7Y595D01*
X1262Y595D02*
X1269Y595D01*
X0Y594D02*
X7Y594D01*
X1262Y594D02*
X1269Y594D01*
X0Y593D02*
X7Y593D01*
X1262Y593D02*
X1269Y593D01*
X0Y592D02*
X7Y592D01*
X1262Y592D02*
X1269Y592D01*
X0Y591D02*
X7Y591D01*
X1262Y591D02*
X1269Y591D01*
X0Y590D02*
X7Y590D01*
X1262Y590D02*
X1269Y590D01*
X0Y589D02*
X7Y589D01*
X1262Y589D02*
X1269Y589D01*
X0Y588D02*
X7Y588D01*
X1262Y588D02*
X1269Y588D01*
X0Y587D02*
X7Y587D01*
X1262Y587D02*
X1269Y587D01*
X0Y586D02*
X7Y586D01*
X1262Y586D02*
X1269Y586D01*
X0Y585D02*
X7Y585D01*
X1262Y585D02*
X1269Y585D01*
X0Y584D02*
X7Y584D01*
X1262Y584D02*
X1269Y584D01*
X0Y583D02*
X7Y583D01*
X1262Y583D02*
X1269Y583D01*
X0Y582D02*
X7Y582D01*
X1262Y582D02*
X1269Y582D01*
X0Y581D02*
X7Y581D01*
X1262Y581D02*
X1269Y581D01*
X0Y580D02*
X7Y580D01*
X1262Y580D02*
X1269Y580D01*
X0Y579D02*
X7Y579D01*
X1262Y579D02*
X1269Y579D01*
X0Y578D02*
X7Y578D01*
X1262Y578D02*
X1269Y578D01*
X0Y577D02*
X7Y577D01*
X1262Y577D02*
X1269Y577D01*
X0Y576D02*
X7Y576D01*
X1262Y576D02*
X1269Y576D01*
X0Y575D02*
X7Y575D01*
X1262Y575D02*
X1269Y575D01*
X0Y574D02*
X7Y574D01*
X1262Y574D02*
X1269Y574D01*
X0Y573D02*
X7Y573D01*
X1262Y573D02*
X1269Y573D01*
X0Y572D02*
X7Y572D01*
X1262Y572D02*
X1269Y572D01*
X0Y571D02*
X7Y571D01*
X1262Y571D02*
X1269Y571D01*
X0Y570D02*
X7Y570D01*
X1262Y570D02*
X1269Y570D01*
X0Y569D02*
X7Y569D01*
X1262Y569D02*
X1269Y569D01*
X0Y568D02*
X7Y568D01*
X1262Y568D02*
X1269Y568D01*
X0Y567D02*
X7Y567D01*
X1262Y567D02*
X1269Y567D01*
X0Y566D02*
X7Y566D01*
X1262Y566D02*
X1269Y566D01*
X0Y565D02*
X7Y565D01*
X1262Y565D02*
X1269Y565D01*
X0Y564D02*
X7Y564D01*
X1262Y564D02*
X1269Y564D01*
X0Y563D02*
X7Y563D01*
X1262Y563D02*
X1269Y563D01*
X0Y562D02*
X7Y562D01*
X1262Y562D02*
X1269Y562D01*
X0Y561D02*
X7Y561D01*
X1262Y561D02*
X1269Y561D01*
X0Y560D02*
X7Y560D01*
X1262Y560D02*
X1269Y560D01*
X0Y559D02*
X7Y559D01*
X1262Y559D02*
X1269Y559D01*
X0Y558D02*
X7Y558D01*
X1262Y558D02*
X1269Y558D01*
X0Y557D02*
X7Y557D01*
X1262Y557D02*
X1269Y557D01*
X0Y556D02*
X7Y556D01*
X1262Y556D02*
X1269Y556D01*
X0Y555D02*
X7Y555D01*
X1262Y555D02*
X1269Y555D01*
X0Y554D02*
X7Y554D01*
X1262Y554D02*
X1269Y554D01*
X0Y553D02*
X7Y553D01*
X1262Y553D02*
X1269Y553D01*
X0Y552D02*
X7Y552D01*
X1262Y552D02*
X1269Y552D01*
X0Y551D02*
X7Y551D01*
X1262Y551D02*
X1269Y551D01*
X0Y550D02*
X7Y550D01*
X1262Y550D02*
X1269Y550D01*
X0Y549D02*
X7Y549D01*
X1262Y549D02*
X1269Y549D01*
X0Y548D02*
X7Y548D01*
X1262Y548D02*
X1269Y548D01*
X0Y547D02*
X7Y547D01*
X1262Y547D02*
X1269Y547D01*
X0Y546D02*
X7Y546D01*
X1262Y546D02*
X1269Y546D01*
X0Y545D02*
X7Y545D01*
X1262Y545D02*
X1269Y545D01*
X0Y544D02*
X7Y544D01*
X1262Y544D02*
X1269Y544D01*
X0Y543D02*
X7Y543D01*
X1262Y543D02*
X1269Y543D01*
X0Y542D02*
X7Y542D01*
X1262Y542D02*
X1269Y542D01*
X0Y541D02*
X7Y541D01*
X1262Y541D02*
X1269Y541D01*
X0Y540D02*
X7Y540D01*
X1262Y540D02*
X1269Y540D01*
X0Y539D02*
X7Y539D01*
X1262Y539D02*
X1269Y539D01*
X0Y538D02*
X7Y538D01*
X1262Y538D02*
X1269Y538D01*
X0Y537D02*
X7Y537D01*
X1262Y537D02*
X1269Y537D01*
X0Y536D02*
X7Y536D01*
X1262Y536D02*
X1269Y536D01*
X0Y535D02*
X7Y535D01*
X1262Y535D02*
X1269Y535D01*
X0Y534D02*
X7Y534D01*
X1262Y534D02*
X1269Y534D01*
X0Y533D02*
X7Y533D01*
X1262Y533D02*
X1269Y533D01*
X0Y532D02*
X7Y532D01*
X1262Y532D02*
X1269Y532D01*
X0Y531D02*
X7Y531D01*
X1262Y531D02*
X1269Y531D01*
X0Y530D02*
X7Y530D01*
X1262Y530D02*
X1269Y530D01*
X0Y529D02*
X7Y529D01*
X1262Y529D02*
X1269Y529D01*
X0Y528D02*
X7Y528D01*
X1262Y528D02*
X1269Y528D01*
X0Y527D02*
X7Y527D01*
X1262Y527D02*
X1269Y527D01*
X0Y526D02*
X7Y526D01*
X1262Y526D02*
X1269Y526D01*
X0Y525D02*
X7Y525D01*
X1262Y525D02*
X1269Y525D01*
X0Y524D02*
X7Y524D01*
X1262Y524D02*
X1269Y524D01*
X0Y523D02*
X7Y523D01*
X1262Y523D02*
X1269Y523D01*
X0Y522D02*
X7Y522D01*
X1262Y522D02*
X1269Y522D01*
X0Y521D02*
X7Y521D01*
X1262Y521D02*
X1269Y521D01*
X0Y520D02*
X7Y520D01*
X1262Y520D02*
X1269Y520D01*
X0Y519D02*
X7Y519D01*
X1262Y519D02*
X1269Y519D01*
X0Y518D02*
X7Y518D01*
X1262Y518D02*
X1269Y518D01*
X0Y517D02*
X7Y517D01*
X1262Y517D02*
X1269Y517D01*
X0Y516D02*
X7Y516D01*
X1262Y516D02*
X1269Y516D01*
X0Y515D02*
X7Y515D01*
X1262Y515D02*
X1269Y515D01*
X0Y514D02*
X7Y514D01*
X1262Y514D02*
X1269Y514D01*
X0Y513D02*
X7Y513D01*
X1262Y513D02*
X1269Y513D01*
X0Y512D02*
X7Y512D01*
X1262Y512D02*
X1269Y512D01*
X0Y511D02*
X7Y511D01*
X1262Y511D02*
X1269Y511D01*
X0Y510D02*
X7Y510D01*
X1262Y510D02*
X1269Y510D01*
X0Y509D02*
X7Y509D01*
X1262Y509D02*
X1269Y509D01*
X0Y508D02*
X7Y508D01*
X925Y508D02*
X945Y508D01*
X1262Y508D02*
X1269Y508D01*
X0Y507D02*
X7Y507D01*
X926Y507D02*
X945Y507D01*
X1262Y507D02*
X1269Y507D01*
X0Y506D02*
X7Y506D01*
X926Y506D02*
X944Y506D01*
X1262Y506D02*
X1269Y506D01*
X0Y505D02*
X7Y505D01*
X927Y505D02*
X944Y505D01*
X1262Y505D02*
X1269Y505D01*
X0Y504D02*
X7Y504D01*
X927Y504D02*
X944Y504D01*
X1262Y504D02*
X1269Y504D01*
X0Y503D02*
X7Y503D01*
X927Y503D02*
X943Y503D01*
X1262Y503D02*
X1269Y503D01*
X0Y502D02*
X7Y502D01*
X928Y502D02*
X943Y502D01*
X1262Y502D02*
X1269Y502D01*
X0Y501D02*
X7Y501D01*
X1262Y501D02*
X1269Y501D01*
X0Y500D02*
X7Y500D01*
X1262Y500D02*
X1269Y500D01*
X0Y499D02*
X7Y499D01*
X1262Y499D02*
X1269Y499D01*
X0Y498D02*
X7Y498D01*
X1262Y498D02*
X1269Y498D01*
X0Y497D02*
X7Y497D01*
X1262Y497D02*
X1269Y497D01*
X0Y496D02*
X7Y496D01*
X1262Y496D02*
X1269Y496D01*
X0Y495D02*
X7Y495D01*
X1262Y495D02*
X1269Y495D01*
X0Y494D02*
X7Y494D01*
X1262Y494D02*
X1269Y494D01*
X0Y493D02*
X7Y493D01*
X1262Y493D02*
X1269Y493D01*
X0Y492D02*
X7Y492D01*
X1262Y492D02*
X1269Y492D01*
X0Y491D02*
X7Y491D01*
X1262Y491D02*
X1269Y491D01*
X0Y490D02*
X7Y490D01*
X1262Y490D02*
X1269Y490D01*
X0Y489D02*
X7Y489D01*
X1262Y489D02*
X1269Y489D01*
X0Y488D02*
X7Y488D01*
X1262Y488D02*
X1269Y488D01*
X0Y487D02*
X7Y487D01*
X1262Y487D02*
X1269Y487D01*
X0Y486D02*
X7Y486D01*
X1262Y486D02*
X1269Y486D01*
X0Y485D02*
X7Y485D01*
X1262Y485D02*
X1269Y485D01*
X0Y484D02*
X7Y484D01*
X929Y484D02*
X941Y484D01*
X1262Y484D02*
X1269Y484D01*
X0Y483D02*
X7Y483D01*
X929Y483D02*
X941Y483D01*
X1262Y483D02*
X1269Y483D01*
X0Y482D02*
X7Y482D01*
X929Y482D02*
X942Y482D01*
X1262Y482D02*
X1269Y482D01*
X0Y481D02*
X7Y481D01*
X929Y481D02*
X942Y481D01*
X1262Y481D02*
X1269Y481D01*
X0Y480D02*
X7Y480D01*
X929Y480D02*
X942Y480D01*
X1262Y480D02*
X1269Y480D01*
X0Y479D02*
X7Y479D01*
X928Y479D02*
X942Y479D01*
X1262Y479D02*
X1269Y479D01*
X0Y478D02*
X7Y478D01*
X928Y478D02*
X943Y478D01*
X1262Y478D02*
X1269Y478D01*
X0Y477D02*
X7Y477D01*
X1262Y477D02*
X1269Y477D01*
X0Y476D02*
X7Y476D01*
X1262Y476D02*
X1269Y476D01*
X0Y475D02*
X7Y475D01*
X1262Y475D02*
X1269Y475D01*
X0Y474D02*
X7Y474D01*
X1262Y474D02*
X1269Y474D01*
X0Y473D02*
X7Y473D01*
X1262Y473D02*
X1269Y473D01*
X0Y472D02*
X7Y472D01*
X1262Y472D02*
X1269Y472D01*
X0Y471D02*
X7Y471D01*
X1262Y471D02*
X1269Y471D01*
X0Y470D02*
X7Y470D01*
X1262Y470D02*
X1269Y470D01*
X0Y469D02*
X7Y469D01*
X946Y469D02*
X946Y469D01*
X1262Y469D02*
X1269Y469D01*
X0Y468D02*
X7Y468D01*
X946Y468D02*
X947Y468D01*
X1262Y468D02*
X1269Y468D01*
X0Y467D02*
X7Y467D01*
X946Y467D02*
X947Y467D01*
X1262Y467D02*
X1269Y467D01*
X0Y466D02*
X7Y466D01*
X946Y466D02*
X948Y466D01*
X1262Y466D02*
X1269Y466D01*
X0Y465D02*
X7Y465D01*
X946Y465D02*
X948Y465D01*
X1262Y465D02*
X1269Y465D01*
X0Y464D02*
X7Y464D01*
X946Y464D02*
X949Y464D01*
X1262Y464D02*
X1269Y464D01*
X0Y463D02*
X7Y463D01*
X946Y463D02*
X950Y463D01*
X1262Y463D02*
X1269Y463D01*
X0Y462D02*
X7Y462D01*
X946Y462D02*
X951Y462D01*
X1262Y462D02*
X1269Y462D01*
X0Y461D02*
X7Y461D01*
X921Y461D02*
X951Y461D01*
X1262Y461D02*
X1269Y461D01*
X0Y460D02*
X7Y460D01*
X919Y460D02*
X952Y460D01*
X1262Y460D02*
X1269Y460D01*
X0Y459D02*
X7Y459D01*
X918Y459D02*
X952Y459D01*
X1262Y459D02*
X1269Y459D01*
X0Y458D02*
X7Y458D01*
X918Y458D02*
X952Y458D01*
X1262Y458D02*
X1269Y458D01*
X0Y457D02*
X7Y457D01*
X918Y457D02*
X952Y457D01*
X1262Y457D02*
X1269Y457D01*
X0Y456D02*
X7Y456D01*
X919Y456D02*
X952Y456D01*
X1262Y456D02*
X1269Y456D01*
X0Y455D02*
X7Y455D01*
X919Y455D02*
X952Y455D01*
X1262Y455D02*
X1269Y455D01*
X0Y454D02*
X7Y454D01*
X1262Y454D02*
X1269Y454D01*
X0Y453D02*
X7Y453D01*
X1262Y453D02*
X1269Y453D01*
X0Y452D02*
X7Y452D01*
X1262Y452D02*
X1269Y452D01*
X0Y451D02*
X7Y451D01*
X1262Y451D02*
X1269Y451D01*
X0Y450D02*
X7Y450D01*
X1262Y450D02*
X1269Y450D01*
X0Y449D02*
X7Y449D01*
X1262Y449D02*
X1269Y449D01*
X0Y448D02*
X7Y448D01*
X1262Y448D02*
X1269Y448D01*
X0Y447D02*
X7Y447D01*
X1262Y447D02*
X1269Y447D01*
X0Y446D02*
X7Y446D01*
X1262Y446D02*
X1269Y446D01*
X0Y445D02*
X7Y445D01*
X1262Y445D02*
X1269Y445D01*
X0Y444D02*
X7Y444D01*
X1262Y444D02*
X1269Y444D01*
X0Y443D02*
X7Y443D01*
X1262Y443D02*
X1269Y443D01*
X0Y442D02*
X7Y442D01*
X1262Y442D02*
X1269Y442D01*
X0Y441D02*
X7Y441D01*
X1262Y441D02*
X1269Y441D01*
X0Y440D02*
X7Y440D01*
X1262Y440D02*
X1269Y440D01*
X0Y439D02*
X7Y439D01*
X1262Y439D02*
X1269Y439D01*
X0Y438D02*
X7Y438D01*
X1262Y438D02*
X1269Y438D01*
X0Y437D02*
X7Y437D01*
X1262Y437D02*
X1269Y437D01*
X0Y436D02*
X7Y436D01*
X1262Y436D02*
X1269Y436D01*
X0Y435D02*
X7Y435D01*
X1262Y435D02*
X1269Y435D01*
X0Y434D02*
X7Y434D01*
X1262Y434D02*
X1269Y434D01*
X0Y433D02*
X7Y433D01*
X1262Y433D02*
X1269Y433D01*
X0Y432D02*
X7Y432D01*
X1262Y432D02*
X1269Y432D01*
X0Y431D02*
X7Y431D01*
X1262Y431D02*
X1269Y431D01*
X0Y430D02*
X7Y430D01*
X1262Y430D02*
X1269Y430D01*
X0Y429D02*
X7Y429D01*
X1262Y429D02*
X1269Y429D01*
X0Y428D02*
X7Y428D01*
X1262Y428D02*
X1269Y428D01*
X0Y427D02*
X7Y427D01*
X1262Y427D02*
X1269Y427D01*
X0Y426D02*
X7Y426D01*
X1262Y426D02*
X1269Y426D01*
X0Y425D02*
X7Y425D01*
X1262Y425D02*
X1269Y425D01*
X0Y424D02*
X7Y424D01*
X1262Y424D02*
X1269Y424D01*
X0Y423D02*
X7Y423D01*
X1262Y423D02*
X1269Y423D01*
X0Y422D02*
X7Y422D01*
X1262Y422D02*
X1269Y422D01*
X0Y421D02*
X7Y421D01*
X1262Y421D02*
X1269Y421D01*
X0Y420D02*
X7Y420D01*
X1262Y420D02*
X1269Y420D01*
X0Y419D02*
X7Y419D01*
X1262Y419D02*
X1269Y419D01*
X0Y418D02*
X7Y418D01*
X1262Y418D02*
X1269Y418D01*
X0Y417D02*
X7Y417D01*
X1262Y417D02*
X1269Y417D01*
X0Y416D02*
X7Y416D01*
X1262Y416D02*
X1269Y416D01*
X0Y415D02*
X7Y415D01*
X1262Y415D02*
X1269Y415D01*
X0Y414D02*
X7Y414D01*
X1262Y414D02*
X1269Y414D01*
X0Y413D02*
X7Y413D01*
X1262Y413D02*
X1269Y413D01*
X0Y412D02*
X7Y412D01*
X1262Y412D02*
X1269Y412D01*
X0Y411D02*
X7Y411D01*
X1262Y411D02*
X1269Y411D01*
X0Y410D02*
X7Y410D01*
X1262Y410D02*
X1269Y410D01*
X0Y409D02*
X7Y409D01*
X1096Y409D02*
X1098Y409D01*
X1262Y409D02*
X1269Y409D01*
X0Y408D02*
X7Y408D01*
X1095Y408D02*
X1099Y408D01*
X1262Y408D02*
X1269Y408D01*
X0Y407D02*
X7Y407D01*
X1094Y407D02*
X1100Y407D01*
X1262Y407D02*
X1269Y407D01*
X0Y406D02*
X7Y406D01*
X1094Y406D02*
X1101Y406D01*
X1262Y406D02*
X1269Y406D01*
X0Y405D02*
X7Y405D01*
X1095Y405D02*
X1102Y405D01*
X1262Y405D02*
X1269Y405D01*
X0Y404D02*
X7Y404D01*
X1096Y404D02*
X1103Y404D01*
X1262Y404D02*
X1269Y404D01*
X0Y403D02*
X7Y403D01*
X1097Y403D02*
X1104Y403D01*
X1262Y403D02*
X1269Y403D01*
X0Y402D02*
X7Y402D01*
X1098Y402D02*
X1105Y402D01*
X1262Y402D02*
X1269Y402D01*
X0Y401D02*
X7Y401D01*
X1099Y401D02*
X1106Y401D01*
X1262Y401D02*
X1269Y401D01*
X0Y400D02*
X7Y400D01*
X1100Y400D02*
X1107Y400D01*
X1262Y400D02*
X1269Y400D01*
X0Y399D02*
X7Y399D01*
X1101Y399D02*
X1108Y399D01*
X1262Y399D02*
X1269Y399D01*
X0Y398D02*
X7Y398D01*
X1102Y398D02*
X1109Y398D01*
X1262Y398D02*
X1269Y398D01*
X0Y397D02*
X7Y397D01*
X1103Y397D02*
X1110Y397D01*
X1262Y397D02*
X1269Y397D01*
X0Y396D02*
X7Y396D01*
X1104Y396D02*
X1111Y396D01*
X1262Y396D02*
X1269Y396D01*
X0Y395D02*
X7Y395D01*
X1105Y395D02*
X1112Y395D01*
X1262Y395D02*
X1269Y395D01*
X0Y394D02*
X7Y394D01*
X1106Y394D02*
X1113Y394D01*
X1262Y394D02*
X1269Y394D01*
X0Y393D02*
X7Y393D01*
X1108Y393D02*
X1114Y393D01*
X1262Y393D02*
X1269Y393D01*
X0Y392D02*
X7Y392D01*
X1109Y392D02*
X1115Y392D01*
X1262Y392D02*
X1269Y392D01*
X0Y391D02*
X7Y391D01*
X1110Y391D02*
X1116Y391D01*
X1262Y391D02*
X1269Y391D01*
X0Y390D02*
X7Y390D01*
X1111Y390D02*
X1117Y390D01*
X1262Y390D02*
X1269Y390D01*
X0Y389D02*
X7Y389D01*
X1112Y389D02*
X1118Y389D01*
X1262Y389D02*
X1269Y389D01*
X0Y388D02*
X7Y388D01*
X1113Y388D02*
X1119Y388D01*
X1262Y388D02*
X1269Y388D01*
X0Y387D02*
X7Y387D01*
X1114Y387D02*
X1120Y387D01*
X1262Y387D02*
X1269Y387D01*
X0Y386D02*
X7Y386D01*
X1115Y386D02*
X1121Y386D01*
X1262Y386D02*
X1269Y386D01*
X0Y385D02*
X7Y385D01*
X1115Y385D02*
X1122Y385D01*
X1262Y385D02*
X1269Y385D01*
X0Y384D02*
X7Y384D01*
X1116Y384D02*
X1123Y384D01*
X1262Y384D02*
X1269Y384D01*
X0Y383D02*
X7Y383D01*
X1117Y383D02*
X1124Y383D01*
X1262Y383D02*
X1269Y383D01*
X0Y382D02*
X7Y382D01*
X1118Y382D02*
X1125Y382D01*
X1262Y382D02*
X1269Y382D01*
X0Y381D02*
X7Y381D01*
X1119Y381D02*
X1126Y381D01*
X1262Y381D02*
X1269Y381D01*
X0Y380D02*
X7Y380D01*
X1120Y380D02*
X1127Y380D01*
X1262Y380D02*
X1269Y380D01*
X0Y379D02*
X7Y379D01*
X1121Y379D02*
X1128Y379D01*
X1262Y379D02*
X1269Y379D01*
X0Y378D02*
X7Y378D01*
X1122Y378D02*
X1129Y378D01*
X1262Y378D02*
X1269Y378D01*
X0Y377D02*
X7Y377D01*
X1123Y377D02*
X1130Y377D01*
X1262Y377D02*
X1269Y377D01*
X0Y376D02*
X7Y376D01*
X1124Y376D02*
X1131Y376D01*
X1262Y376D02*
X1269Y376D01*
X0Y375D02*
X7Y375D01*
X1125Y375D02*
X1131Y375D01*
X1262Y375D02*
X1269Y375D01*
X0Y374D02*
X7Y374D01*
X1126Y374D02*
X1130Y374D01*
X1262Y374D02*
X1269Y374D01*
X0Y373D02*
X7Y373D01*
X1127Y373D02*
X1129Y373D01*
X1262Y373D02*
X1269Y373D01*
X0Y372D02*
X7Y372D01*
X1262Y372D02*
X1269Y372D01*
X0Y371D02*
X7Y371D01*
X1262Y371D02*
X1269Y371D01*
X0Y370D02*
X7Y370D01*
X1262Y370D02*
X1269Y370D01*
X0Y369D02*
X7Y369D01*
X1262Y369D02*
X1269Y369D01*
X0Y368D02*
X7Y368D01*
X1262Y368D02*
X1269Y368D01*
X0Y367D02*
X7Y367D01*
X1262Y367D02*
X1269Y367D01*
X0Y366D02*
X7Y366D01*
X1262Y366D02*
X1269Y366D01*
X0Y365D02*
X7Y365D01*
X1262Y365D02*
X1269Y365D01*
X0Y364D02*
X7Y364D01*
X1262Y364D02*
X1269Y364D01*
X0Y363D02*
X7Y363D01*
X1262Y363D02*
X1269Y363D01*
X0Y362D02*
X7Y362D01*
X1262Y362D02*
X1269Y362D01*
X0Y361D02*
X7Y361D01*
X1262Y361D02*
X1269Y361D01*
X0Y360D02*
X7Y360D01*
X1262Y360D02*
X1269Y360D01*
X0Y359D02*
X7Y359D01*
X1262Y359D02*
X1269Y359D01*
X0Y358D02*
X7Y358D01*
X1262Y358D02*
X1269Y358D01*
X0Y357D02*
X7Y357D01*
X1262Y357D02*
X1269Y357D01*
X0Y356D02*
X7Y356D01*
X1262Y356D02*
X1269Y356D01*
X0Y355D02*
X7Y355D01*
X1262Y355D02*
X1269Y355D01*
X0Y354D02*
X7Y354D01*
X1262Y354D02*
X1269Y354D01*
X0Y353D02*
X7Y353D01*
X1262Y353D02*
X1269Y353D01*
X0Y352D02*
X7Y352D01*
X1262Y352D02*
X1269Y352D01*
X0Y351D02*
X7Y351D01*
X1262Y351D02*
X1269Y351D01*
X0Y350D02*
X7Y350D01*
X1262Y350D02*
X1269Y350D01*
X0Y349D02*
X7Y349D01*
X1262Y349D02*
X1269Y349D01*
X0Y348D02*
X7Y348D01*
X1262Y348D02*
X1269Y348D01*
X0Y347D02*
X7Y347D01*
X1262Y347D02*
X1269Y347D01*
X0Y346D02*
X7Y346D01*
X1262Y346D02*
X1269Y346D01*
X0Y345D02*
X7Y345D01*
X1262Y345D02*
X1269Y345D01*
X0Y344D02*
X7Y344D01*
X1262Y344D02*
X1269Y344D01*
X0Y343D02*
X7Y343D01*
X1262Y343D02*
X1269Y343D01*
X0Y342D02*
X7Y342D01*
X1262Y342D02*
X1269Y342D01*
X0Y341D02*
X7Y341D01*
X1262Y341D02*
X1269Y341D01*
X0Y340D02*
X7Y340D01*
X1262Y340D02*
X1269Y340D01*
X0Y339D02*
X7Y339D01*
X1262Y339D02*
X1269Y339D01*
X0Y338D02*
X7Y338D01*
X1262Y338D02*
X1269Y338D01*
X0Y337D02*
X7Y337D01*
X1262Y337D02*
X1269Y337D01*
X0Y336D02*
X7Y336D01*
X1262Y336D02*
X1269Y336D01*
X0Y335D02*
X7Y335D01*
X1262Y335D02*
X1269Y335D01*
X0Y334D02*
X7Y334D01*
X1262Y334D02*
X1269Y334D01*
X0Y333D02*
X7Y333D01*
X1262Y333D02*
X1269Y333D01*
X0Y332D02*
X7Y332D01*
X1262Y332D02*
X1269Y332D01*
X0Y331D02*
X7Y331D01*
X1262Y331D02*
X1269Y331D01*
X0Y330D02*
X7Y330D01*
X1262Y330D02*
X1269Y330D01*
X0Y329D02*
X7Y329D01*
X1262Y329D02*
X1269Y329D01*
X0Y328D02*
X7Y328D01*
X1262Y328D02*
X1269Y328D01*
X0Y327D02*
X7Y327D01*
X1262Y327D02*
X1269Y327D01*
X0Y326D02*
X7Y326D01*
X1262Y326D02*
X1269Y326D01*
X0Y325D02*
X7Y325D01*
X1262Y325D02*
X1269Y325D01*
X0Y324D02*
X7Y324D01*
X1262Y324D02*
X1269Y324D01*
X0Y323D02*
X7Y323D01*
X1262Y323D02*
X1269Y323D01*
X0Y322D02*
X7Y322D01*
X1262Y322D02*
X1269Y322D01*
X0Y321D02*
X7Y321D01*
X1262Y321D02*
X1269Y321D01*
X0Y320D02*
X7Y320D01*
X1262Y320D02*
X1269Y320D01*
X0Y319D02*
X7Y319D01*
X1262Y319D02*
X1269Y319D01*
X0Y318D02*
X7Y318D01*
X1262Y318D02*
X1269Y318D01*
X0Y317D02*
X7Y317D01*
X1262Y317D02*
X1269Y317D01*
X0Y316D02*
X7Y316D01*
X1262Y316D02*
X1269Y316D01*
X0Y315D02*
X7Y315D01*
X1262Y315D02*
X1269Y315D01*
X0Y314D02*
X7Y314D01*
X1262Y314D02*
X1269Y314D01*
X0Y313D02*
X7Y313D01*
X1262Y313D02*
X1269Y313D01*
X0Y312D02*
X7Y312D01*
X1262Y312D02*
X1269Y312D01*
X0Y311D02*
X7Y311D01*
X1262Y311D02*
X1269Y311D01*
X0Y310D02*
X7Y310D01*
X1262Y310D02*
X1269Y310D01*
X0Y309D02*
X7Y309D01*
X1262Y309D02*
X1269Y309D01*
X0Y308D02*
X7Y308D01*
X1262Y308D02*
X1269Y308D01*
X0Y307D02*
X7Y307D01*
X1262Y307D02*
X1269Y307D01*
X0Y306D02*
X7Y306D01*
X1262Y306D02*
X1269Y306D01*
X0Y305D02*
X7Y305D01*
X1262Y305D02*
X1269Y305D01*
X0Y304D02*
X7Y304D01*
X1262Y304D02*
X1269Y304D01*
X0Y303D02*
X7Y303D01*
X1262Y303D02*
X1269Y303D01*
X0Y302D02*
X7Y302D01*
X1262Y302D02*
X1269Y302D01*
X0Y301D02*
X7Y301D01*
X1262Y301D02*
X1269Y301D01*
X0Y300D02*
X7Y300D01*
X1262Y300D02*
X1269Y300D01*
X0Y299D02*
X7Y299D01*
X1262Y299D02*
X1269Y299D01*
X0Y298D02*
X7Y298D01*
X1262Y298D02*
X1269Y298D01*
X0Y297D02*
X7Y297D01*
X1262Y297D02*
X1269Y297D01*
X0Y296D02*
X7Y296D01*
X1262Y296D02*
X1269Y296D01*
X0Y295D02*
X7Y295D01*
X1262Y295D02*
X1269Y295D01*
X0Y294D02*
X7Y294D01*
X1262Y294D02*
X1269Y294D01*
X0Y293D02*
X7Y293D01*
X1262Y293D02*
X1269Y293D01*
X0Y292D02*
X7Y292D01*
X1262Y292D02*
X1269Y292D01*
X0Y291D02*
X7Y291D01*
X1262Y291D02*
X1269Y291D01*
X0Y290D02*
X7Y290D01*
X1262Y290D02*
X1269Y290D01*
X0Y289D02*
X7Y289D01*
X1262Y289D02*
X1269Y289D01*
X0Y288D02*
X7Y288D01*
X1262Y288D02*
X1269Y288D01*
X0Y287D02*
X7Y287D01*
X1262Y287D02*
X1269Y287D01*
X0Y286D02*
X7Y286D01*
X1262Y286D02*
X1269Y286D01*
X0Y285D02*
X7Y285D01*
X1262Y285D02*
X1269Y285D01*
X0Y284D02*
X7Y284D01*
X1262Y284D02*
X1269Y284D01*
X0Y283D02*
X7Y283D01*
X1262Y283D02*
X1269Y283D01*
X0Y282D02*
X7Y282D01*
X1262Y282D02*
X1269Y282D01*
X0Y281D02*
X7Y281D01*
X1262Y281D02*
X1269Y281D01*
X0Y280D02*
X7Y280D01*
X1262Y280D02*
X1269Y280D01*
X0Y279D02*
X7Y279D01*
X1262Y279D02*
X1269Y279D01*
X0Y278D02*
X7Y278D01*
X1262Y278D02*
X1269Y278D01*
X0Y277D02*
X7Y277D01*
X1262Y277D02*
X1269Y277D01*
X0Y276D02*
X7Y276D01*
X1262Y276D02*
X1269Y276D01*
X0Y275D02*
X7Y275D01*
X1262Y275D02*
X1269Y275D01*
X0Y274D02*
X7Y274D01*
X1262Y274D02*
X1269Y274D01*
X0Y273D02*
X7Y273D01*
X1262Y273D02*
X1269Y273D01*
X0Y272D02*
X7Y272D01*
X1262Y272D02*
X1269Y272D01*
X0Y271D02*
X7Y271D01*
X1262Y271D02*
X1269Y271D01*
X0Y270D02*
X7Y270D01*
X1262Y270D02*
X1269Y270D01*
X0Y269D02*
X7Y269D01*
X1262Y269D02*
X1269Y269D01*
X0Y268D02*
X7Y268D01*
X1262Y268D02*
X1269Y268D01*
X0Y267D02*
X7Y267D01*
X1262Y267D02*
X1269Y267D01*
X0Y266D02*
X7Y266D01*
X1262Y266D02*
X1269Y266D01*
X0Y265D02*
X7Y265D01*
X1262Y265D02*
X1269Y265D01*
X0Y264D02*
X7Y264D01*
X1262Y264D02*
X1269Y264D01*
X0Y263D02*
X7Y263D01*
X1262Y263D02*
X1269Y263D01*
X0Y262D02*
X7Y262D01*
X1262Y262D02*
X1269Y262D01*
X0Y261D02*
X7Y261D01*
X1262Y261D02*
X1269Y261D01*
X0Y260D02*
X7Y260D01*
X1262Y260D02*
X1269Y260D01*
X0Y259D02*
X7Y259D01*
X1262Y259D02*
X1269Y259D01*
X0Y258D02*
X7Y258D01*
X1262Y258D02*
X1269Y258D01*
X0Y257D02*
X7Y257D01*
X1262Y257D02*
X1269Y257D01*
X0Y256D02*
X7Y256D01*
X1262Y256D02*
X1269Y256D01*
X0Y255D02*
X7Y255D01*
X1262Y255D02*
X1269Y255D01*
X0Y254D02*
X7Y254D01*
X1262Y254D02*
X1269Y254D01*
X0Y253D02*
X7Y253D01*
X1262Y253D02*
X1269Y253D01*
X0Y252D02*
X7Y252D01*
X1262Y252D02*
X1269Y252D01*
X0Y251D02*
X7Y251D01*
X1262Y251D02*
X1269Y251D01*
X0Y250D02*
X7Y250D01*
X1262Y250D02*
X1269Y250D01*
X0Y249D02*
X7Y249D01*
X1262Y249D02*
X1269Y249D01*
X0Y248D02*
X7Y248D01*
X1262Y248D02*
X1269Y248D01*
X0Y247D02*
X7Y247D01*
X1262Y247D02*
X1269Y247D01*
X0Y246D02*
X7Y246D01*
X1262Y246D02*
X1269Y246D01*
X0Y245D02*
X7Y245D01*
X1262Y245D02*
X1269Y245D01*
X0Y244D02*
X7Y244D01*
X1262Y244D02*
X1269Y244D01*
X0Y243D02*
X7Y243D01*
X1262Y243D02*
X1269Y243D01*
X0Y242D02*
X7Y242D01*
X1262Y242D02*
X1269Y242D01*
X0Y241D02*
X7Y241D01*
X1262Y241D02*
X1269Y241D01*
X0Y240D02*
X7Y240D01*
X1262Y240D02*
X1269Y240D01*
X0Y239D02*
X7Y239D01*
X1262Y239D02*
X1269Y239D01*
X0Y238D02*
X7Y238D01*
X1262Y238D02*
X1269Y238D01*
X0Y237D02*
X7Y237D01*
X1262Y237D02*
X1269Y237D01*
X0Y236D02*
X7Y236D01*
X1262Y236D02*
X1269Y236D01*
X0Y235D02*
X7Y235D01*
X1262Y235D02*
X1269Y235D01*
X0Y234D02*
X7Y234D01*
X1262Y234D02*
X1269Y234D01*
X0Y233D02*
X7Y233D01*
X1262Y233D02*
X1269Y233D01*
X0Y232D02*
X7Y232D01*
X1262Y232D02*
X1269Y232D01*
X0Y231D02*
X7Y231D01*
X1262Y231D02*
X1269Y231D01*
X0Y230D02*
X7Y230D01*
X1262Y230D02*
X1269Y230D01*
X0Y229D02*
X7Y229D01*
X1262Y229D02*
X1269Y229D01*
X0Y228D02*
X7Y228D01*
X1262Y228D02*
X1269Y228D01*
X0Y227D02*
X7Y227D01*
X1262Y227D02*
X1269Y227D01*
X0Y226D02*
X7Y226D01*
X1262Y226D02*
X1269Y226D01*
X0Y225D02*
X7Y225D01*
X1262Y225D02*
X1269Y225D01*
X0Y224D02*
X7Y224D01*
X1262Y224D02*
X1269Y224D01*
X0Y223D02*
X7Y223D01*
X1262Y223D02*
X1269Y223D01*
X0Y222D02*
X7Y222D01*
X1262Y222D02*
X1269Y222D01*
X0Y221D02*
X7Y221D01*
X1262Y221D02*
X1269Y221D01*
X0Y220D02*
X7Y220D01*
X1262Y220D02*
X1269Y220D01*
X0Y219D02*
X7Y219D01*
X1262Y219D02*
X1269Y219D01*
X0Y218D02*
X7Y218D01*
X1262Y218D02*
X1269Y218D01*
X0Y217D02*
X7Y217D01*
X1262Y217D02*
X1269Y217D01*
X0Y216D02*
X7Y216D01*
X1262Y216D02*
X1269Y216D01*
X0Y215D02*
X7Y215D01*
X1262Y215D02*
X1269Y215D01*
X0Y214D02*
X7Y214D01*
X1262Y214D02*
X1269Y214D01*
X0Y213D02*
X7Y213D01*
X924Y213D02*
X949Y213D01*
X974Y213D02*
X975Y213D01*
X1262Y213D02*
X1269Y213D01*
X0Y212D02*
X7Y212D01*
X921Y212D02*
X951Y212D01*
X973Y212D02*
X977Y212D01*
X1262Y212D02*
X1269Y212D01*
X0Y211D02*
X7Y211D01*
X920Y211D02*
X951Y211D01*
X972Y211D02*
X977Y211D01*
X1262Y211D02*
X1269Y211D01*
X0Y210D02*
X7Y210D01*
X919Y210D02*
X952Y210D01*
X972Y210D02*
X977Y210D01*
X1262Y210D02*
X1269Y210D01*
X0Y209D02*
X7Y209D01*
X919Y209D02*
X952Y209D01*
X972Y209D02*
X978Y209D01*
X1262Y209D02*
X1269Y209D01*
X0Y208D02*
X7Y208D01*
X918Y208D02*
X951Y208D01*
X972Y208D02*
X978Y208D01*
X1262Y208D02*
X1269Y208D01*
X0Y207D02*
X7Y207D01*
X918Y207D02*
X950Y207D01*
X972Y207D02*
X978Y207D01*
X1262Y207D02*
X1269Y207D01*
X0Y206D02*
X7Y206D01*
X918Y206D02*
X924Y206D01*
X972Y206D02*
X978Y206D01*
X1262Y206D02*
X1269Y206D01*
X0Y205D02*
X7Y205D01*
X918Y205D02*
X924Y205D01*
X972Y205D02*
X978Y205D01*
X1262Y205D02*
X1269Y205D01*
X0Y204D02*
X7Y204D01*
X918Y204D02*
X924Y204D01*
X972Y204D02*
X978Y204D01*
X1262Y204D02*
X1269Y204D01*
X0Y203D02*
X7Y203D01*
X918Y203D02*
X924Y203D01*
X972Y203D02*
X978Y203D01*
X1262Y203D02*
X1269Y203D01*
X0Y202D02*
X7Y202D01*
X918Y202D02*
X924Y202D01*
X972Y202D02*
X978Y202D01*
X1262Y202D02*
X1269Y202D01*
X0Y201D02*
X7Y201D01*
X918Y201D02*
X924Y201D01*
X972Y201D02*
X978Y201D01*
X1262Y201D02*
X1269Y201D01*
X0Y200D02*
X7Y200D01*
X918Y200D02*
X924Y200D01*
X972Y200D02*
X978Y200D01*
X1262Y200D02*
X1269Y200D01*
X0Y199D02*
X7Y199D01*
X918Y199D02*
X924Y199D01*
X972Y199D02*
X978Y199D01*
X1262Y199D02*
X1269Y199D01*
X0Y198D02*
X7Y198D01*
X918Y198D02*
X924Y198D01*
X972Y198D02*
X978Y198D01*
X1262Y198D02*
X1269Y198D01*
X0Y197D02*
X7Y197D01*
X918Y197D02*
X924Y197D01*
X972Y197D02*
X978Y197D01*
X1262Y197D02*
X1269Y197D01*
X0Y196D02*
X7Y196D01*
X918Y196D02*
X924Y196D01*
X972Y196D02*
X978Y196D01*
X1262Y196D02*
X1269Y196D01*
X0Y195D02*
X7Y195D01*
X918Y195D02*
X924Y195D01*
X972Y195D02*
X978Y195D01*
X1262Y195D02*
X1269Y195D01*
X0Y194D02*
X7Y194D01*
X918Y194D02*
X924Y194D01*
X972Y194D02*
X978Y194D01*
X1262Y194D02*
X1269Y194D01*
X0Y193D02*
X7Y193D01*
X918Y193D02*
X924Y193D01*
X972Y193D02*
X978Y193D01*
X1262Y193D02*
X1269Y193D01*
X0Y192D02*
X7Y192D01*
X918Y192D02*
X924Y192D01*
X972Y192D02*
X978Y192D01*
X1262Y192D02*
X1269Y192D01*
X0Y191D02*
X7Y191D01*
X918Y191D02*
X925Y191D01*
X972Y191D02*
X978Y191D01*
X1262Y191D02*
X1269Y191D01*
X0Y190D02*
X7Y190D01*
X919Y190D02*
X926Y190D01*
X972Y190D02*
X978Y190D01*
X1262Y190D02*
X1269Y190D01*
X0Y189D02*
X7Y189D01*
X919Y189D02*
X943Y189D01*
X972Y189D02*
X978Y189D01*
X1262Y189D02*
X1269Y189D01*
X0Y188D02*
X7Y188D01*
X919Y188D02*
X944Y188D01*
X972Y188D02*
X978Y188D01*
X1262Y188D02*
X1269Y188D01*
X0Y187D02*
X7Y187D01*
X920Y187D02*
X945Y187D01*
X972Y187D02*
X978Y187D01*
X1262Y187D02*
X1269Y187D01*
X0Y186D02*
X7Y186D01*
X921Y186D02*
X945Y186D01*
X972Y186D02*
X978Y186D01*
X1262Y186D02*
X1269Y186D01*
X0Y185D02*
X7Y185D01*
X920Y185D02*
X945Y185D01*
X972Y185D02*
X978Y185D01*
X1262Y185D02*
X1269Y185D01*
X0Y184D02*
X7Y184D01*
X919Y184D02*
X944Y184D01*
X972Y184D02*
X978Y184D01*
X1262Y184D02*
X1269Y184D01*
X0Y183D02*
X7Y183D01*
X919Y183D02*
X943Y183D01*
X972Y183D02*
X978Y183D01*
X994Y183D02*
X997Y183D01*
X1262Y183D02*
X1269Y183D01*
X0Y182D02*
X7Y182D01*
X919Y182D02*
X926Y182D01*
X972Y182D02*
X978Y182D01*
X993Y182D02*
X998Y182D01*
X1262Y182D02*
X1269Y182D01*
X0Y181D02*
X7Y181D01*
X918Y181D02*
X925Y181D01*
X972Y181D02*
X978Y181D01*
X992Y181D02*
X998Y181D01*
X1262Y181D02*
X1269Y181D01*
X0Y180D02*
X7Y180D01*
X918Y180D02*
X924Y180D01*
X972Y180D02*
X978Y180D01*
X992Y180D02*
X998Y180D01*
X1262Y180D02*
X1269Y180D01*
X0Y179D02*
X7Y179D01*
X918Y179D02*
X924Y179D01*
X972Y179D02*
X978Y179D01*
X992Y179D02*
X998Y179D01*
X1262Y179D02*
X1269Y179D01*
X0Y178D02*
X7Y178D01*
X918Y178D02*
X924Y178D01*
X972Y178D02*
X978Y178D01*
X992Y178D02*
X998Y178D01*
X1262Y178D02*
X1269Y178D01*
X0Y177D02*
X7Y177D01*
X918Y177D02*
X924Y177D01*
X972Y177D02*
X978Y177D01*
X992Y177D02*
X998Y177D01*
X1262Y177D02*
X1269Y177D01*
X0Y176D02*
X7Y176D01*
X918Y176D02*
X924Y176D01*
X972Y176D02*
X978Y176D01*
X992Y176D02*
X998Y176D01*
X1262Y176D02*
X1269Y176D01*
X0Y175D02*
X7Y175D01*
X918Y175D02*
X924Y175D01*
X972Y175D02*
X978Y175D01*
X992Y175D02*
X998Y175D01*
X1262Y175D02*
X1269Y175D01*
X0Y174D02*
X7Y174D01*
X918Y174D02*
X924Y174D01*
X972Y174D02*
X978Y174D01*
X992Y174D02*
X998Y174D01*
X1262Y174D02*
X1269Y174D01*
X0Y173D02*
X7Y173D01*
X918Y173D02*
X924Y173D01*
X972Y173D02*
X978Y173D01*
X992Y173D02*
X998Y173D01*
X1262Y173D02*
X1269Y173D01*
X0Y172D02*
X7Y172D01*
X918Y172D02*
X924Y172D01*
X972Y172D02*
X978Y172D01*
X992Y172D02*
X998Y172D01*
X1262Y172D02*
X1269Y172D01*
X0Y171D02*
X7Y171D01*
X918Y171D02*
X924Y171D01*
X972Y171D02*
X978Y171D01*
X992Y171D02*
X998Y171D01*
X1262Y171D02*
X1269Y171D01*
X0Y170D02*
X7Y170D01*
X918Y170D02*
X924Y170D01*
X972Y170D02*
X978Y170D01*
X992Y170D02*
X998Y170D01*
X1262Y170D02*
X1269Y170D01*
X0Y169D02*
X7Y169D01*
X918Y169D02*
X924Y169D01*
X972Y169D02*
X978Y169D01*
X992Y169D02*
X998Y169D01*
X1262Y169D02*
X1269Y169D01*
X0Y168D02*
X7Y168D01*
X918Y168D02*
X924Y168D01*
X972Y168D02*
X978Y168D01*
X992Y168D02*
X998Y168D01*
X1262Y168D02*
X1269Y168D01*
X0Y167D02*
X7Y167D01*
X918Y167D02*
X924Y167D01*
X972Y167D02*
X979Y167D01*
X991Y167D02*
X998Y167D01*
X1262Y167D02*
X1269Y167D01*
X0Y166D02*
X7Y166D01*
X918Y166D02*
X948Y166D01*
X972Y166D02*
X998Y166D01*
X1262Y166D02*
X1269Y166D01*
X0Y165D02*
X7Y165D01*
X918Y165D02*
X951Y165D01*
X973Y165D02*
X997Y165D01*
X1262Y165D02*
X1269Y165D01*
X0Y164D02*
X7Y164D01*
X918Y164D02*
X951Y164D01*
X973Y164D02*
X997Y164D01*
X1262Y164D02*
X1269Y164D01*
X0Y163D02*
X7Y163D01*
X919Y163D02*
X952Y163D01*
X974Y163D02*
X996Y163D01*
X1262Y163D02*
X1269Y163D01*
X0Y162D02*
X7Y162D01*
X919Y162D02*
X952Y162D01*
X975Y162D02*
X995Y162D01*
X1262Y162D02*
X1269Y162D01*
X0Y161D02*
X7Y161D01*
X920Y161D02*
X951Y161D01*
X976Y161D02*
X994Y161D01*
X1262Y161D02*
X1269Y161D01*
X0Y160D02*
X7Y160D01*
X922Y160D02*
X951Y160D01*
X978Y160D02*
X992Y160D01*
X1262Y160D02*
X1269Y160D01*
X0Y159D02*
X7Y159D01*
X925Y159D02*
X948Y159D01*
X982Y159D02*
X988Y159D01*
X1262Y159D02*
X1269Y159D01*
X0Y158D02*
X7Y158D01*
X1262Y158D02*
X1269Y158D01*
X0Y157D02*
X7Y157D01*
X1262Y157D02*
X1269Y157D01*
X0Y156D02*
X7Y156D01*
X1262Y156D02*
X1269Y156D01*
X0Y155D02*
X7Y155D01*
X1262Y155D02*
X1269Y155D01*
X0Y154D02*
X7Y154D01*
X1262Y154D02*
X1269Y154D01*
X0Y153D02*
X7Y153D01*
X1262Y153D02*
X1269Y153D01*
X0Y152D02*
X7Y152D01*
X1262Y152D02*
X1269Y152D01*
X0Y151D02*
X7Y151D01*
X1262Y151D02*
X1269Y151D01*
X0Y150D02*
X7Y150D01*
X1262Y150D02*
X1269Y150D01*
X0Y149D02*
X7Y149D01*
X1262Y149D02*
X1269Y149D01*
X0Y148D02*
X7Y148D01*
X1262Y148D02*
X1269Y148D01*
X0Y147D02*
X7Y147D01*
X1262Y147D02*
X1269Y147D01*
X0Y146D02*
X7Y146D01*
X1262Y146D02*
X1269Y146D01*
X0Y145D02*
X7Y145D01*
X1262Y145D02*
X1269Y145D01*
X0Y144D02*
X7Y144D01*
X1262Y144D02*
X1269Y144D01*
X0Y143D02*
X7Y143D01*
X1262Y143D02*
X1269Y143D01*
X0Y142D02*
X7Y142D01*
X1262Y142D02*
X1269Y142D01*
X0Y141D02*
X7Y141D01*
X1262Y141D02*
X1269Y141D01*
X0Y140D02*
X7Y140D01*
X1262Y140D02*
X1269Y140D01*
X0Y139D02*
X7Y139D01*
X1262Y139D02*
X1269Y139D01*
X0Y138D02*
X7Y138D01*
X1262Y138D02*
X1269Y138D01*
X0Y137D02*
X7Y137D01*
X1262Y137D02*
X1269Y137D01*
X0Y136D02*
X7Y136D01*
X1262Y136D02*
X1269Y136D01*
X0Y135D02*
X7Y135D01*
X1262Y135D02*
X1269Y135D01*
X0Y134D02*
X7Y134D01*
X1262Y134D02*
X1269Y134D01*
X0Y133D02*
X7Y133D01*
X1262Y133D02*
X1269Y133D01*
X0Y132D02*
X7Y132D01*
X1262Y132D02*
X1269Y132D01*
X0Y131D02*
X7Y131D01*
X1262Y131D02*
X1269Y131D01*
X0Y130D02*
X7Y130D01*
X1262Y130D02*
X1269Y130D01*
X0Y129D02*
X7Y129D01*
X1262Y129D02*
X1269Y129D01*
X0Y128D02*
X7Y128D01*
X1262Y128D02*
X1269Y128D01*
X0Y127D02*
X7Y127D01*
X1262Y127D02*
X1269Y127D01*
X0Y126D02*
X7Y126D01*
X1262Y126D02*
X1269Y126D01*
X0Y125D02*
X7Y125D01*
X1262Y125D02*
X1269Y125D01*
X0Y124D02*
X7Y124D01*
X1262Y124D02*
X1269Y124D01*
X0Y123D02*
X7Y123D01*
X1262Y123D02*
X1269Y123D01*
X0Y122D02*
X7Y122D01*
X1262Y122D02*
X1269Y122D01*
X0Y121D02*
X7Y121D01*
X1262Y121D02*
X1269Y121D01*
X0Y120D02*
X7Y120D01*
X1262Y120D02*
X1269Y120D01*
X0Y119D02*
X7Y119D01*
X1262Y119D02*
X1269Y119D01*
X0Y118D02*
X7Y118D01*
X1262Y118D02*
X1269Y118D01*
X0Y117D02*
X7Y117D01*
X1262Y117D02*
X1269Y117D01*
X0Y116D02*
X7Y116D01*
X1262Y116D02*
X1269Y116D01*
X0Y115D02*
X7Y115D01*
X1262Y115D02*
X1269Y115D01*
X0Y114D02*
X7Y114D01*
X1096Y114D02*
X1097Y114D01*
X1262Y114D02*
X1269Y114D01*
X0Y113D02*
X7Y113D01*
X1095Y113D02*
X1098Y113D01*
X1262Y113D02*
X1269Y113D01*
X0Y112D02*
X7Y112D01*
X1094Y112D02*
X1099Y112D01*
X1262Y112D02*
X1269Y112D01*
X0Y111D02*
X7Y111D01*
X1094Y111D02*
X1100Y111D01*
X1262Y111D02*
X1269Y111D01*
X0Y110D02*
X7Y110D01*
X1095Y110D02*
X1101Y110D01*
X1262Y110D02*
X1269Y110D01*
X0Y109D02*
X7Y109D01*
X1096Y109D02*
X1102Y109D01*
X1262Y109D02*
X1269Y109D01*
X0Y108D02*
X7Y108D01*
X1097Y108D02*
X1103Y108D01*
X1262Y108D02*
X1269Y108D01*
X0Y107D02*
X7Y107D01*
X1098Y107D02*
X1104Y107D01*
X1262Y107D02*
X1269Y107D01*
X0Y106D02*
X7Y106D01*
X1099Y106D02*
X1105Y106D01*
X1262Y106D02*
X1269Y106D01*
X0Y105D02*
X7Y105D01*
X1100Y105D02*
X1106Y105D01*
X1262Y105D02*
X1269Y105D01*
X0Y104D02*
X7Y104D01*
X1101Y104D02*
X1107Y104D01*
X1262Y104D02*
X1269Y104D01*
X0Y103D02*
X7Y103D01*
X1102Y103D02*
X1108Y103D01*
X1262Y103D02*
X1269Y103D01*
X0Y102D02*
X7Y102D01*
X1103Y102D02*
X1109Y102D01*
X1262Y102D02*
X1269Y102D01*
X0Y101D02*
X7Y101D01*
X1104Y101D02*
X1110Y101D01*
X1262Y101D02*
X1269Y101D01*
X0Y100D02*
X7Y100D01*
X1105Y100D02*
X1111Y100D01*
X1262Y100D02*
X1269Y100D01*
X0Y99D02*
X7Y99D01*
X1106Y99D02*
X1112Y99D01*
X1262Y99D02*
X1269Y99D01*
X0Y98D02*
X7Y98D01*
X1107Y98D02*
X1113Y98D01*
X1262Y98D02*
X1269Y98D01*
X0Y97D02*
X7Y97D01*
X1109Y97D02*
X1114Y97D01*
X1262Y97D02*
X1269Y97D01*
X0Y96D02*
X7Y96D01*
X1110Y96D02*
X1115Y96D01*
X1262Y96D02*
X1269Y96D01*
X0Y95D02*
X7Y95D01*
X1111Y95D02*
X1116Y95D01*
X1262Y95D02*
X1269Y95D01*
X0Y94D02*
X7Y94D01*
X1112Y94D02*
X1117Y94D01*
X1262Y94D02*
X1269Y94D01*
X0Y93D02*
X7Y93D01*
X1113Y93D02*
X1118Y93D01*
X1262Y93D02*
X1269Y93D01*
X0Y92D02*
X7Y92D01*
X1114Y92D02*
X1119Y92D01*
X1262Y92D02*
X1269Y92D01*
X0Y91D02*
X7Y91D01*
X1115Y91D02*
X1120Y91D01*
X1262Y91D02*
X1269Y91D01*
X0Y90D02*
X7Y90D01*
X1115Y90D02*
X1121Y90D01*
X1262Y90D02*
X1269Y90D01*
X0Y89D02*
X7Y89D01*
X1116Y89D02*
X1122Y89D01*
X1262Y89D02*
X1269Y89D01*
X0Y88D02*
X7Y88D01*
X1117Y88D02*
X1123Y88D01*
X1262Y88D02*
X1269Y88D01*
X0Y87D02*
X7Y87D01*
X1118Y87D02*
X1124Y87D01*
X1262Y87D02*
X1269Y87D01*
X0Y86D02*
X7Y86D01*
X1119Y86D02*
X1125Y86D01*
X1262Y86D02*
X1269Y86D01*
X0Y85D02*
X7Y85D01*
X1120Y85D02*
X1126Y85D01*
X1262Y85D02*
X1269Y85D01*
X0Y84D02*
X7Y84D01*
X1121Y84D02*
X1127Y84D01*
X1262Y84D02*
X1269Y84D01*
X0Y83D02*
X7Y83D01*
X1122Y83D02*
X1128Y83D01*
X1262Y83D02*
X1269Y83D01*
X0Y82D02*
X7Y82D01*
X1123Y82D02*
X1129Y82D01*
X1262Y82D02*
X1269Y82D01*
X0Y81D02*
X7Y81D01*
X1124Y81D02*
X1130Y81D01*
X1262Y81D02*
X1269Y81D01*
X0Y80D02*
X7Y80D01*
X1125Y80D02*
X1131Y80D01*
X1262Y80D02*
X1269Y80D01*
X0Y79D02*
X7Y79D01*
X1126Y79D02*
X1130Y79D01*
X1262Y79D02*
X1269Y79D01*
X0Y78D02*
X7Y78D01*
X1127Y78D02*
X1129Y78D01*
X1262Y78D02*
X1269Y78D01*
X0Y77D02*
X7Y77D01*
X1128Y77D02*
X1128Y77D01*
X1262Y77D02*
X1269Y77D01*
X0Y76D02*
X7Y76D01*
X1262Y76D02*
X1269Y76D01*
X0Y75D02*
X7Y75D01*
X1262Y75D02*
X1269Y75D01*
X0Y74D02*
X7Y74D01*
X1262Y74D02*
X1269Y74D01*
X0Y73D02*
X7Y73D01*
X1262Y73D02*
X1269Y73D01*
X0Y72D02*
X7Y72D01*
X1262Y72D02*
X1269Y72D01*
X0Y71D02*
X7Y71D01*
X1262Y71D02*
X1269Y71D01*
X0Y70D02*
X7Y70D01*
X1262Y70D02*
X1269Y70D01*
X0Y69D02*
X7Y69D01*
X1262Y69D02*
X1269Y69D01*
X0Y68D02*
X7Y68D01*
X1262Y68D02*
X1269Y68D01*
X0Y67D02*
X7Y67D01*
X1262Y67D02*
X1269Y67D01*
X0Y66D02*
X7Y66D01*
X1262Y66D02*
X1269Y66D01*
X0Y65D02*
X7Y65D01*
X1262Y65D02*
X1269Y65D01*
X0Y64D02*
X7Y64D01*
X1262Y64D02*
X1269Y64D01*
X0Y63D02*
X7Y63D01*
X1262Y63D02*
X1269Y63D01*
X0Y62D02*
X7Y62D01*
X1262Y62D02*
X1269Y62D01*
X0Y61D02*
X7Y61D01*
X1262Y61D02*
X1269Y61D01*
X0Y60D02*
X7Y60D01*
X1262Y60D02*
X1269Y60D01*
X0Y59D02*
X7Y59D01*
X1262Y59D02*
X1269Y59D01*
X0Y58D02*
X7Y58D01*
X1262Y58D02*
X1269Y58D01*
X0Y57D02*
X7Y57D01*
X1262Y57D02*
X1269Y57D01*
X0Y56D02*
X7Y56D01*
X1262Y56D02*
X1269Y56D01*
X0Y55D02*
X7Y55D01*
X1262Y55D02*
X1269Y55D01*
X0Y54D02*
X7Y54D01*
X1262Y54D02*
X1269Y54D01*
X0Y53D02*
X7Y53D01*
X1262Y53D02*
X1269Y53D01*
X0Y52D02*
X7Y52D01*
X1262Y52D02*
X1269Y52D01*
X0Y51D02*
X7Y51D01*
X1262Y51D02*
X1269Y51D01*
X0Y50D02*
X7Y50D01*
X1262Y50D02*
X1269Y50D01*
X0Y49D02*
X7Y49D01*
X1262Y49D02*
X1269Y49D01*
X0Y48D02*
X7Y48D01*
X1262Y48D02*
X1269Y48D01*
X0Y47D02*
X7Y47D01*
X1262Y47D02*
X1269Y47D01*
X0Y46D02*
X7Y46D01*
X1262Y46D02*
X1269Y46D01*
X0Y45D02*
X7Y45D01*
X1262Y45D02*
X1269Y45D01*
X0Y44D02*
X7Y44D01*
X1262Y44D02*
X1269Y44D01*
X0Y43D02*
X7Y43D01*
X1262Y43D02*
X1269Y43D01*
X0Y42D02*
X7Y42D01*
X1262Y42D02*
X1269Y42D01*
X0Y41D02*
X7Y41D01*
X1262Y41D02*
X1269Y41D01*
X0Y40D02*
X7Y40D01*
X1262Y40D02*
X1269Y40D01*
X0Y39D02*
X7Y39D01*
X1262Y39D02*
X1269Y39D01*
X0Y38D02*
X7Y38D01*
X1262Y38D02*
X1269Y38D01*
X0Y37D02*
X7Y37D01*
X1262Y37D02*
X1269Y37D01*
X0Y36D02*
X7Y36D01*
X1262Y36D02*
X1269Y36D01*
X0Y35D02*
X7Y35D01*
X1262Y35D02*
X1269Y35D01*
X0Y34D02*
X7Y34D01*
X1262Y34D02*
X1269Y34D01*
X0Y33D02*
X7Y33D01*
X1262Y33D02*
X1269Y33D01*
X0Y32D02*
X7Y32D01*
X1262Y32D02*
X1269Y32D01*
X0Y31D02*
X7Y31D01*
X1262Y31D02*
X1269Y31D01*
X0Y30D02*
X7Y30D01*
X1262Y30D02*
X1269Y30D01*
X0Y29D02*
X7Y29D01*
X1262Y29D02*
X1269Y29D01*
X0Y28D02*
X7Y28D01*
X1262Y28D02*
X1269Y28D01*
X0Y27D02*
X7Y27D01*
X1262Y27D02*
X1269Y27D01*
X0Y26D02*
X7Y26D01*
X1262Y26D02*
X1269Y26D01*
X0Y25D02*
X7Y25D01*
X1262Y25D02*
X1269Y25D01*
X0Y24D02*
X7Y24D01*
X1262Y24D02*
X1269Y24D01*
X0Y23D02*
X7Y23D01*
X1262Y23D02*
X1269Y23D01*
X0Y22D02*
X7Y22D01*
X1262Y22D02*
X1269Y22D01*
X0Y21D02*
X7Y21D01*
X1262Y21D02*
X1269Y21D01*
X0Y20D02*
X7Y20D01*
X1262Y20D02*
X1269Y20D01*
X0Y19D02*
X7Y19D01*
X1262Y19D02*
X1269Y19D01*
X0Y18D02*
X7Y18D01*
X1262Y18D02*
X1269Y18D01*
X0Y17D02*
X7Y17D01*
X1262Y17D02*
X1269Y17D01*
X0Y16D02*
X7Y16D01*
X1262Y16D02*
X1269Y16D01*
X0Y15D02*
X7Y15D01*
X1262Y15D02*
X1269Y15D01*
X0Y14D02*
X7Y14D01*
X1262Y14D02*
X1269Y14D01*
X0Y13D02*
X7Y13D01*
X1262Y13D02*
X1269Y13D01*
X0Y12D02*
X7Y12D01*
X1262Y12D02*
X1269Y12D01*
X0Y11D02*
X7Y11D01*
X1262Y11D02*
X1269Y11D01*
X0Y10D02*
X7Y10D01*
X1262Y10D02*
X1269Y10D01*
X0Y9D02*
X1269Y9D01*
X0Y8D02*
X1269Y8D01*
X0Y7D02*
X1269Y7D01*
X0Y6D02*
X1269Y6D01*
X0Y5D02*
X1269Y5D01*
X0Y4D02*
X1269Y4D01*
X0Y3D02*
X1269Y3D01*
X0Y2D02*
X1269Y2D01*
D02*
G04 End of Silk0*
M02*